<svg width="230" height="107" viewBox="0 0 230 107" fill="none" xmlns="http://www.w3.org/2000/svg">
<g filter="url(#filter0_d_0_1)">
<path d="M34.9 94.3C31.3667 94.3 28.3333 93.6667 25.8 92.4C23.3333 91.2 21.4667 89.6 20.2 87.6C19 85.6 18.4 83.5 18.4 81.3C18.4 78.2333 19.4 75.6333 21.4 73.5C23.4667 71.3667 26.3 70.3 29.9 70.3C31.0333 70.3 31.6 70.6 31.6 71.2C31.6 71.4667 31.1667 72.0333 30.3 72.9C29.4333 73.8333 28.6667 74.9333 28 76.2C27.4 77.4667 27.1 79.0667 27.1 81C27.1 83.4667 27.9333 85.5 29.6 87.1C31.2667 88.7 33.5333 89.5 36.4 89.5C40.4 89.5 43.3667 87.9667 45.3 84.9C47.3 81.9 48.3 76.9667 48.3 70.1V61.5C43.4333 65.5 38.1 67.5 32.3 67.5C26.1667 67.5 21 66.0667 16.8 63.2C12.6 60.3333 9.43333 56.4333 7.3 51.5C5.23333 46.5667 4.2 41.0333 4.2 34.9C4.2 29.0333 5.3 23.6667 7.5 18.8C9.76667 13.9333 13.1333 10.0333 17.6 7.1C22.1333 4.16666 27.6333 2.7 34.1 2.7C38.3 2.7 42.0667 3.3 45.4 4.5C48.7333 5.7 51.3333 7.4 53.2 9.6C55.0667 11.7333 56 14.1667 56 16.9C56 20.0333 55.0667 22.6 53.2 24.6C51.4 26.6 49.1 27.6 46.3 27.6C45.4333 27.6 44.9 27.5333 44.7 27.4C44.5667 27.2667 44.5 26.9333 44.5 26.4C44.5 26.2 44.7333 25.7 45.2 24.9C45.7333 24.0333 46.1667 23.0667 46.5 22C46.8333 20.9333 47 19.6667 47 18.2C47 15.0667 45.8 12.5333 43.4 10.6C41.0667 8.66666 37.9667 7.7 34.1 7.7C29.3667 7.7 25.5 9.06666 22.5 11.8C19.5 14.5333 17.3333 17.9333 16 22C14.6667 26.0667 14 30.2333 14 34.5C14 39.5 14.7667 44.0667 16.3 48.2C17.8333 52.3333 20.0333 55.6 22.9 58C25.8333 60.4 29.2 61.6 33 61.6C39.1333 61.6 44.2333 59.5667 48.3 55.5V50.9C48.3 48.1667 47.8667 46.2667 47 45.2C46.2 44.0667 44.6333 43.1667 42.3 42.5L40.4 41.9L41.4 38.7H60.5L61.6 40.3L60.5 41.9C58.9667 43.9 57.8667 46.0333 57.2 48.3C56.6 50.5667 56.3 53.5 56.3 57.1V67.5C56.3 85.3667 49.1667 94.3 34.9 94.3ZM110.6 70.3C110.133 69.8333 109.6 69.5 109 69.3C108.467 69.1 107.733 69 106.8 69H68.6L67.5 66.1L69.5 65.6C71.7 64.9333 73.1667 64.1 73.9 63.1C74.6333 62.0333 75 60.2 75 57.6V22.1C75 18.5 74.7 15.6 74.1 13.4C73.5 11.2 72.4667 9.1 71 7.1L69.8 5.4L71 4H98.7C103.967 4 107.367 3.36666 108.9 2.1L110.7 0.899995L112 2.1V18.2L108.9 19.3L108.4 17.1C107.6 13.8333 106.567 11.6667 105.3 10.6C104.033 9.53333 101.833 9 98.7 9H89.8C87.4667 9 85.9 9.46666 85.1 10.4C84.3667 11.3333 84 13.2 84 16V33.4H95.5C97.0333 33.4 98.3333 33.1 99.4 32.5C100.467 31.9 101.567 30.8333 102.7 29.3L103.4 28.3L105.2 29.3V44.8L102.2 45.9L101.6 43.6C100.933 41.5333 99.9333 40.1667 98.6 39.5C97.2667 38.8333 94.9333 38.5 91.6 38.5H84V57C84 58.9333 84.1333 60.4 84.4 61.4C84.7333 62.3333 85.3 62.9667 86.1 63.3C86.9 63.6333 88.1333 63.8 89.8 63.8H99.5C101.7 63.8 103.4 63.6 104.6 63.2C105.8 62.7333 106.733 61.9333 107.4 60.8C108.133 59.6667 108.8 58 109.4 55.8L110 53.8L113 54.7V70.3L111.3 71.2L110.6 70.3ZM119.978 65.9L121.978 65.4C124.378 64.6667 126.011 63.8 126.878 62.8C127.745 61.7333 128.278 59.8 128.478 57L130.978 21.1C131.045 20.3667 131.111 19.3 131.178 17.9C131.311 16.4333 131.378 15.1667 131.378 14.1C131.378 12.0333 131.011 10.5667 130.278 9.69999C129.545 8.83333 128.178 8.13333 126.178 7.6L123.978 7.1L124.878 4H141.478L160.178 49.6L179.278 4H192.378L193.778 5.4L192.778 7.1C191.578 8.76666 190.711 10.4667 190.178 12.2C189.711 13.8667 189.478 15.9667 189.478 18.5C189.478 19.5 189.511 20.8333 189.578 22.5C189.711 24.1 189.811 25.4333 189.878 26.5L191.578 51.4C191.911 55.1333 192.545 58.2667 193.478 60.8C194.478 63.2667 195.978 65.5 197.978 67.5L196.778 69H176.878L175.778 65.9L177.878 65.4C179.811 64.8 181.178 64.0333 181.978 63.1C182.778 62.1667 183.178 60.7667 183.178 58.9L183.078 55.5L180.278 17.6L161.378 62.6H156.478L137.478 17.6L135.478 45.7C135.145 50.8333 134.978 53.7667 134.978 54.5C134.978 56.9667 135.211 59.1 135.678 60.9C136.211 62.6333 137.045 64.3 138.178 65.9L139.378 67.5L137.878 69H120.878L119.978 65.9Z" fill="#49111C"/>
</g>
<g filter="url(#filter1_d_0_1)">
<path d="M60.642 98V76.1818H68.0142C69.7188 76.1818 71.1179 76.473 72.2116 77.0554C73.3054 77.6307 74.1151 78.4226 74.6406 79.4311C75.1662 80.4396 75.429 81.5866 75.429 82.8722C75.429 84.1577 75.1662 85.2976 74.6406 86.2919C74.1151 87.2862 73.3089 88.0675 72.2223 88.6357C71.1357 89.1967 69.7472 89.4773 68.0568 89.4773H62.0909V87.0909H67.9716C69.1364 87.0909 70.0739 86.9205 70.7841 86.5795C71.5014 86.2386 72.0199 85.7557 72.3395 85.1307C72.6662 84.4986 72.8295 83.7457 72.8295 82.8722C72.8295 81.9986 72.6662 81.2351 72.3395 80.5817C72.0128 79.9283 71.4908 79.424 70.7734 79.0689C70.0561 78.7067 69.108 78.5256 67.929 78.5256H63.2841V98H60.642ZM70.9119 88.1989L76.2812 98H73.2131L67.929 88.1989H70.9119ZM86.1756 98.3409C84.5989 98.3409 83.2388 97.9929 82.0953 97.2969C80.959 96.5938 80.0819 95.6136 79.464 94.3565C78.8532 93.0923 78.5478 91.6222 78.5478 89.946C78.5478 88.2699 78.8532 86.7926 79.464 85.5142C80.0819 84.2287 80.9412 83.2273 82.0421 82.5099C83.15 81.7855 84.4426 81.4233 85.9199 81.4233C86.7722 81.4233 87.6138 81.5653 88.4448 81.8494C89.2757 82.1335 90.0321 82.5952 90.714 83.2344C91.3958 83.8665 91.9391 84.7045 92.3439 85.7486C92.7488 86.7926 92.9512 88.0781 92.9512 89.6051V90.6705H80.3375V88.4972H90.3944C90.3944 87.5739 90.2097 86.75 89.8404 86.0256C89.4782 85.3011 88.9597 84.7294 88.285 84.3104C87.6174 83.8913 86.829 83.6818 85.9199 83.6818C84.9185 83.6818 84.052 83.9304 83.3205 84.4276C82.5961 84.9176 82.0385 85.5568 81.6479 86.3452C81.2573 87.1335 81.062 87.9787 81.062 88.8807V90.3295C81.062 91.5653 81.275 92.6129 81.7012 93.4723C82.1344 94.3246 82.7346 94.9744 83.5016 95.4219C84.2686 95.8622 85.16 96.0824 86.1756 96.0824C86.8361 96.0824 87.4327 95.9901 87.9654 95.8054C88.5051 95.6136 88.9703 95.3295 89.361 94.9531C89.7516 94.5696 90.0534 94.0937 90.2665 93.5256L92.6955 94.2074C92.4398 95.0312 92.0101 95.7557 91.4064 96.3807C90.8027 96.9986 90.057 97.4815 89.1692 97.8295C88.2814 98.1705 87.2836 98.3409 86.1756 98.3409ZM108.367 85.3011L106.108 85.9403C105.966 85.5639 105.757 85.1982 105.48 84.843C105.21 84.4808 104.84 84.1825 104.372 83.9482C103.903 83.7138 103.303 83.5966 102.571 83.5966C101.57 83.5966 100.735 83.8274 100.068 84.2891C99.4071 84.7436 99.0769 85.3224 99.0769 86.0256C99.0769 86.6506 99.3042 87.1442 99.7587 87.5064C100.213 87.8686 100.923 88.1705 101.889 88.4119L104.318 89.0085C105.781 89.3636 106.872 89.907 107.589 90.6385C108.306 91.3629 108.665 92.2969 108.665 93.4403C108.665 94.3778 108.395 95.2159 107.855 95.9545C107.323 96.6932 106.577 97.2756 105.618 97.7017C104.659 98.1278 103.544 98.3409 102.273 98.3409C100.604 98.3409 99.2225 97.9787 98.1287 97.2543C97.035 96.5298 96.3425 95.4716 96.0513 94.0795L98.4377 93.483C98.665 94.3636 99.0946 95.0241 99.7267 95.4645C100.366 95.9048 101.2 96.125 102.23 96.125C103.402 96.125 104.333 95.8764 105.021 95.3793C105.718 94.875 106.066 94.2713 106.066 93.5682C106.066 93 105.867 92.5241 105.469 92.1406C105.071 91.75 104.46 91.4588 103.637 91.267L100.909 90.6278C99.4107 90.2727 98.3098 89.7223 97.6067 88.9766C96.9107 88.2237 96.5627 87.2827 96.5627 86.1534C96.5627 85.2301 96.8219 84.4134 97.3404 83.7031C97.8659 82.9929 98.5797 82.4354 99.4817 82.0305C100.391 81.6257 101.421 81.4233 102.571 81.4233C104.191 81.4233 105.462 81.7784 106.385 82.4886C107.316 83.1989 107.976 84.1364 108.367 85.3011ZM119.566 81.6364V83.767H111.086V81.6364H119.566ZM113.558 77.7159H116.072V93.3125C116.072 94.0227 116.175 94.5554 116.381 94.9105C116.594 95.2585 116.864 95.4929 117.19 95.6136C117.524 95.7273 117.876 95.7841 118.245 95.7841C118.522 95.7841 118.749 95.7699 118.927 95.7415C119.104 95.706 119.246 95.6776 119.353 95.6562L119.864 97.9148C119.694 97.9787 119.456 98.0426 119.151 98.1065C118.845 98.1776 118.458 98.2131 117.989 98.2131C117.279 98.2131 116.583 98.0604 115.901 97.755C115.227 97.4496 114.665 96.9844 114.218 96.3594C113.778 95.7344 113.558 94.946 113.558 93.9943V77.7159ZM128.163 98.3835C127.126 98.3835 126.185 98.1882 125.34 97.7976C124.495 97.3999 123.824 96.8281 123.327 96.0824C122.83 95.3295 122.581 94.4205 122.581 93.3551C122.581 92.4176 122.766 91.6577 123.135 91.0753C123.504 90.4858 123.998 90.0241 124.616 89.6903C125.234 89.3565 125.915 89.108 126.661 88.9446C127.414 88.7741 128.17 88.6392 128.93 88.5398C129.925 88.4119 130.731 88.3161 131.349 88.2521C131.974 88.1811 132.428 88.0639 132.712 87.9006C133.004 87.7372 133.149 87.4531 133.149 87.0483V86.9631C133.149 85.9119 132.862 85.0952 132.286 84.5128C131.718 83.9304 130.855 83.6392 129.697 83.6392C128.497 83.6392 127.556 83.902 126.874 84.4276C126.192 84.9531 125.713 85.5142 125.436 86.1108L123.05 85.2585C123.476 84.2642 124.044 83.4901 124.754 82.9361C125.472 82.375 126.253 81.9844 127.098 81.7642C127.95 81.5369 128.788 81.4233 129.612 81.4233C130.138 81.4233 130.741 81.4872 131.423 81.6151C132.112 81.7358 132.776 81.9879 133.415 82.3714C134.062 82.755 134.598 83.3338 135.024 84.108C135.45 84.8821 135.663 85.919 135.663 87.2188V98H133.149V95.7841H133.021C132.851 96.1392 132.567 96.5192 132.169 96.924C131.771 97.3288 131.242 97.6733 130.582 97.9574C129.921 98.2415 129.115 98.3835 128.163 98.3835ZM128.547 96.125C129.541 96.125 130.379 95.9297 131.061 95.5391C131.75 95.1484 132.268 94.6442 132.616 94.0263C132.972 93.4084 133.149 92.7585 133.149 92.0767V89.7756C133.043 89.9034 132.808 90.0206 132.446 90.1271C132.091 90.2266 131.679 90.3153 131.21 90.3935C130.749 90.4645 130.298 90.5284 129.857 90.5852C129.424 90.6349 129.072 90.6776 128.803 90.7131C128.149 90.7983 127.538 90.9368 126.97 91.1286C126.409 91.3132 125.955 91.5937 125.607 91.9702C125.266 92.3395 125.095 92.8437 125.095 93.483C125.095 94.3565 125.418 95.017 126.065 95.4645C126.718 95.9048 127.545 96.125 128.547 96.125ZM150.565 91.3097V81.6364H153.079V98H150.565V95.2301H150.394C150.011 96.0611 149.414 96.7678 148.605 97.3501C147.795 97.9254 146.772 98.2131 145.536 98.2131C144.514 98.2131 143.605 97.9893 142.809 97.5419C142.014 97.0874 141.389 96.4055 140.934 95.4964C140.48 94.5803 140.252 93.4261 140.252 92.0341V81.6364H142.767V91.8636C142.767 93.0568 143.1 94.0085 143.768 94.7188C144.443 95.429 145.302 95.7841 146.346 95.7841C146.971 95.7841 147.607 95.6243 148.253 95.3047C148.906 94.9851 149.453 94.495 149.894 93.8345C150.341 93.174 150.565 92.3324 150.565 91.3097ZM157.684 98V81.6364H160.113V84.108H160.283C160.582 83.2983 161.121 82.6413 161.903 82.1371C162.684 81.6328 163.565 81.3807 164.545 81.3807C164.729 81.3807 164.96 81.3842 165.237 81.3913C165.514 81.3984 165.724 81.4091 165.866 81.4233V83.9801C165.781 83.9588 165.585 83.9268 165.28 83.8842C164.982 83.8345 164.665 83.8097 164.332 83.8097C163.536 83.8097 162.826 83.9766 162.201 84.3104C161.583 84.6371 161.093 85.0916 160.731 85.674C160.376 86.2493 160.198 86.9062 160.198 87.6449V98H157.684ZM173.661 98.3835C172.624 98.3835 171.683 98.1882 170.838 97.7976C169.993 97.3999 169.322 96.8281 168.825 96.0824C168.328 95.3295 168.079 94.4205 168.079 93.3551C168.079 92.4176 168.264 91.6577 168.633 91.0753C169.002 90.4858 169.496 90.0241 170.114 89.6903C170.732 89.3565 171.414 89.108 172.159 88.9446C172.912 88.7741 173.669 88.6392 174.428 88.5398C175.423 88.4119 176.229 88.3161 176.847 88.2521C177.472 88.1811 177.926 88.0639 178.21 87.9006C178.502 87.7372 178.647 87.4531 178.647 87.0483V86.9631C178.647 85.9119 178.36 85.0952 177.784 84.5128C177.216 83.9304 176.353 83.6392 175.195 83.6392C173.995 83.6392 173.054 83.902 172.372 84.4276C171.691 84.9531 171.211 85.5142 170.934 86.1108L168.548 85.2585C168.974 84.2642 169.542 83.4901 170.252 82.9361C170.97 82.375 171.751 81.9844 172.596 81.7642C173.448 81.5369 174.286 81.4233 175.11 81.4233C175.636 81.4233 176.24 81.4872 176.921 81.6151C177.61 81.7358 178.274 81.9879 178.914 82.3714C179.56 82.755 180.096 83.3338 180.522 84.108C180.948 84.8821 181.161 85.919 181.161 87.2188V98H178.647V95.7841H178.519C178.349 96.1392 178.065 96.5192 177.667 96.924C177.269 97.3288 176.74 97.6733 176.08 97.9574C175.419 98.2415 174.613 98.3835 173.661 98.3835ZM174.045 96.125C175.039 96.125 175.877 95.9297 176.559 95.5391C177.248 95.1484 177.767 94.6442 178.115 94.0263C178.47 93.4084 178.647 92.7585 178.647 92.0767V89.7756C178.541 89.9034 178.306 90.0206 177.944 90.1271C177.589 90.2266 177.177 90.3153 176.708 90.3935C176.247 90.4645 175.796 90.5284 175.355 90.5852C174.922 90.6349 174.57 90.6776 174.301 90.7131C173.647 90.7983 173.036 90.9368 172.468 91.1286C171.907 91.3132 171.453 91.5937 171.105 91.9702C170.764 92.3395 170.593 92.8437 170.593 93.483C170.593 94.3565 170.916 95.017 171.563 95.4645C172.216 95.9048 173.044 96.125 174.045 96.125ZM188.265 88.1562V98H185.75V81.6364H188.179V84.1932H188.392C188.776 83.3622 189.358 82.6946 190.14 82.1903C190.921 81.679 191.929 81.4233 193.165 81.4233C194.273 81.4233 195.243 81.6506 196.074 82.1051C196.904 82.5526 197.551 83.2344 198.012 84.1506C198.474 85.0597 198.705 86.2102 198.705 87.6023V98H196.191V87.7727C196.191 86.4872 195.857 85.4858 195.189 84.7685C194.522 84.044 193.605 83.6818 192.441 83.6818C191.638 83.6818 190.921 83.8558 190.289 84.2038C189.664 84.5518 189.17 85.0597 188.808 85.7273C188.446 86.3949 188.265 87.2045 188.265 88.1562ZM210.416 81.6364V83.767H201.936V81.6364H210.416ZM204.407 77.7159H206.921V93.3125C206.921 94.0227 207.024 94.5554 207.23 94.9105C207.443 95.2585 207.713 95.4929 208.04 95.6136C208.374 95.7273 208.725 95.7841 209.095 95.7841C209.372 95.7841 209.599 95.7699 209.776 95.7415C209.954 95.706 210.096 95.6776 210.203 95.6562L210.714 97.9148C210.544 97.9787 210.306 98.0426 210 98.1065C209.695 98.1776 209.308 98.2131 208.839 98.2131C208.129 98.2131 207.433 98.0604 206.751 97.755C206.076 97.4496 205.515 96.9844 205.068 96.3594C204.627 95.7344 204.407 94.946 204.407 93.9943V77.7159ZM225.496 85.3011L223.237 85.9403C223.095 85.5639 222.885 85.1982 222.608 84.843C222.339 84.4808 221.969 84.1825 221.501 83.9482C221.032 83.7138 220.432 83.5966 219.7 83.5966C218.699 83.5966 217.864 83.8274 217.197 84.2891C216.536 84.7436 216.206 85.3224 216.206 86.0256C216.206 86.6506 216.433 87.1442 216.888 87.5064C217.342 87.8686 218.052 88.1705 219.018 88.4119L221.447 89.0085C222.91 89.3636 224.001 89.907 224.718 90.6385C225.435 91.3629 225.794 92.2969 225.794 93.4403C225.794 94.3778 225.524 95.2159 224.984 95.9545C224.452 96.6932 223.706 97.2756 222.747 97.7017C221.788 98.1278 220.673 98.3409 219.402 98.3409C217.733 98.3409 216.351 97.9787 215.258 97.2543C214.164 96.5298 213.471 95.4716 213.18 94.0795L215.567 93.483C215.794 94.3636 216.224 95.0241 216.856 95.4645C217.495 95.9048 218.329 96.125 219.359 96.125C220.531 96.125 221.461 95.8764 222.15 95.3793C222.846 94.875 223.194 94.2713 223.194 93.5682C223.194 93 222.996 92.5241 222.598 92.1406C222.2 91.75 221.589 91.4588 220.765 91.267L218.038 90.6278C216.54 90.2727 215.439 89.7223 214.736 88.9766C214.04 88.2237 213.692 87.2827 213.692 86.1534C213.692 85.2301 213.951 84.4134 214.469 83.7031C214.995 82.9929 215.709 82.4354 216.611 82.0305C217.52 81.6257 218.55 81.4233 219.7 81.4233C221.319 81.4233 222.591 81.7784 223.514 82.4886C224.444 83.1989 225.105 84.1364 225.496 85.3011Z" fill="#A9927D"/>
<path d="M60.642 98H59.642V99H60.642V98ZM60.642 76.1818V75.1818H59.642V76.1818H60.642ZM72.2116 77.0554L71.7416 77.9381L71.7461 77.9404L72.2116 77.0554ZM74.6406 79.4311L73.7538 79.8932V79.8932L74.6406 79.4311ZM74.6406 86.2919L73.7565 85.8246V85.8246L74.6406 86.2919ZM72.2223 88.6357L72.6811 89.5242L72.6857 89.5218L72.2223 88.6357ZM62.0909 89.4773H61.0909V90.4773H62.0909V89.4773ZM62.0909 87.0909V86.0909H61.0909V87.0909H62.0909ZM70.7841 86.5795L70.3548 85.6763L70.3514 85.678L70.7841 86.5795ZM72.3395 85.1307L71.4511 84.6715L71.4491 84.6754L72.3395 85.1307ZM70.7734 79.0689L70.3227 79.9616L70.3298 79.9651L70.7734 79.0689ZM63.2841 78.5256V77.5256H62.2841V78.5256H63.2841ZM63.2841 98V99H64.2841V98H63.2841ZM70.9119 88.1989L71.789 87.7184L71.5043 87.1989H70.9119V88.1989ZM76.2812 98V99H77.9693L77.1583 97.5195L76.2812 98ZM73.2131 98L72.3328 98.4746L72.6161 99H73.2131V98ZM67.929 88.1989V87.1989H66.2538L67.0488 88.6734L67.929 88.1989ZM61.642 98V76.1818H59.642V98H61.642ZM60.642 77.1818H68.0142V75.1818H60.642V77.1818ZM68.0142 77.1818C69.6133 77.1818 70.8366 77.4562 71.7417 77.9381L72.6816 76.1727C71.3992 75.4898 69.8242 75.1818 68.0142 75.1818V77.1818ZM71.7461 77.9404C72.6761 78.4296 73.3306 79.0811 73.7538 79.8932L75.5274 78.969C74.8996 77.7641 73.9347 76.8318 72.6772 76.1704L71.7461 77.9404ZM73.7538 79.8932C74.1958 80.7414 74.429 81.7264 74.429 82.8722H76.429C76.429 81.4469 76.1366 80.1379 75.5274 78.969L73.7538 79.8932ZM74.429 82.8722C74.429 84.0183 74.1957 84.9937 73.7565 85.8246L75.5247 86.7592C76.1367 85.6015 76.429 84.2971 76.429 82.8722H74.429ZM73.7565 85.8246C73.3341 86.6237 72.6832 87.2662 71.7589 87.7495L72.6857 89.5218C73.9347 88.8687 74.896 87.9487 75.5247 86.7592L73.7565 85.8246ZM71.7635 87.7471C70.8624 88.2124 69.6452 88.4773 68.0568 88.4773V90.4773C69.8491 90.4773 71.4089 90.1811 72.6811 89.5242L71.7635 87.7471ZM68.0568 88.4773H62.0909V90.4773H68.0568V88.4773ZM63.0909 89.4773V87.0909H61.0909V89.4773H63.0909ZM62.0909 88.0909H67.9716V86.0909H62.0909V88.0909ZM67.9716 88.0909C69.2204 88.0909 70.3227 87.9103 71.2168 87.4811L70.3514 85.678C69.8251 85.9306 69.0524 86.0909 67.9716 86.0909V88.0909ZM71.2133 87.4827C72.102 87.0604 72.797 86.4324 73.2298 85.586L71.4491 84.6754C71.2428 85.079 70.9008 85.4169 70.3549 85.6764L71.2133 87.4827ZM73.2278 85.5898C73.6428 84.7871 73.8295 83.8697 73.8295 82.8722H71.8295C71.8295 83.6218 71.6896 84.2101 71.4511 84.6715L73.2278 85.5898ZM73.8295 82.8722C73.8295 81.8735 73.6424 80.9514 73.2339 80.1345L71.4451 81.0289C71.69 81.5188 71.8295 82.1237 71.8295 82.8722H73.8295ZM73.2339 80.1345C72.8004 79.2675 72.1098 78.6146 71.2171 78.1727L70.3298 79.9651C70.8717 80.2334 71.2251 80.589 71.4451 81.0289L73.2339 80.1345ZM71.2242 78.1762C70.3172 77.7182 69.197 77.5256 67.929 77.5256V79.5256C69.019 79.5256 69.795 79.6951 70.3227 79.9615L71.2242 78.1762ZM67.929 77.5256H63.2841V79.5256H67.929V77.5256ZM62.2841 78.5256V98H64.2841V78.5256H62.2841ZM63.2841 97H60.642V99H63.2841V97ZM70.0349 88.6793L75.4042 98.4805L77.1583 97.5195L71.789 87.7184L70.0349 88.6793ZM76.2812 97H73.2131V99H76.2812V97ZM74.0933 97.5254L68.8092 87.7243L67.0488 88.6734L72.3328 98.4746L74.0933 97.5254ZM67.929 89.1989H70.9119V87.1989H67.929V89.1989ZM82.0953 97.2969L81.5692 98.1473L81.5754 98.1511L82.0953 97.2969ZM79.464 94.3565L78.5635 94.7916L78.5665 94.7977L79.464 94.3565ZM79.464 85.5142L78.5627 85.081L78.5617 85.0831L79.464 85.5142ZM82.0421 82.5099L82.588 83.3478L82.5893 83.3469L82.0421 82.5099ZM88.4448 81.8494L88.7683 80.9032L88.7683 80.9032L88.4448 81.8494ZM90.714 83.2344L90.03 83.9639L90.0341 83.9677L90.714 83.2344ZM92.3439 85.7486L93.2763 85.3871V85.3871L92.3439 85.7486ZM92.9512 90.6705V91.6705H93.9512V90.6705H92.9512ZM80.3375 90.6705H79.3375V91.6705H80.3375V90.6705ZM80.3375 88.4972V87.4972H79.3375V88.4972H80.3375ZM90.3944 88.4972V89.4972H91.3944V88.4972H90.3944ZM89.8404 86.0256L88.9459 86.4728L88.9495 86.4798L89.8404 86.0256ZM88.285 84.3104L87.7534 85.1574L87.7574 85.1599L88.285 84.3104ZM83.3205 84.4276L83.8808 85.2558L83.8826 85.2546L83.3205 84.4276ZM81.6479 86.3452L80.7519 85.9012L81.6479 86.3452ZM81.7012 93.4723L80.8052 93.9166L80.8097 93.9254L81.7012 93.4723ZM83.5016 95.4219L82.9977 96.2857L83.0037 96.2891L83.5016 95.4219ZM87.9654 95.8054L88.2929 96.7503L88.3001 96.7477L87.9654 95.8054ZM89.361 94.9531L90.0549 95.6732L90.0616 95.6667L89.361 94.9531ZM90.2665 93.5256L90.5368 92.5628L89.6526 92.3146L89.3302 93.1744L90.2665 93.5256ZM92.6955 94.2074L93.6506 94.5038L93.9551 93.5223L92.9657 93.2446L92.6955 94.2074ZM91.4064 96.3807L92.1217 97.0795L92.1257 97.0754L91.4064 96.3807ZM89.1692 97.8295L89.5277 98.7631L89.5342 98.7606L89.1692 97.8295ZM86.1756 97.3409C84.7493 97.3409 83.5761 97.0275 82.6153 96.4427L81.5754 98.1511C82.9015 98.9583 84.4485 99.3409 86.1756 99.3409V97.3409ZM82.6215 96.4465C81.6528 95.8471 80.9006 95.0125 80.3614 93.9154L78.5665 94.7977C79.2631 96.2148 80.2652 97.3404 81.5692 98.1473L82.6215 96.4465ZM80.3644 93.9215C79.8306 92.8168 79.5478 91.5004 79.5478 89.946H77.5478C77.5478 91.7439 77.8757 93.3679 78.5635 94.7916L80.3644 93.9215ZM79.5478 89.946C79.5478 88.392 79.8305 87.0666 80.3663 85.9453L78.5617 85.0831C77.8758 86.5186 77.5478 88.1478 77.5478 89.946H79.5478ZM80.3652 85.9474C80.9109 84.8121 81.6534 83.9568 82.588 83.3478L81.4961 81.6721C80.229 82.4978 79.2528 83.6452 78.5627 85.081L80.3652 85.9474ZM82.5893 83.3469C83.5161 82.7409 84.6137 82.4233 85.9199 82.4233V80.4233C84.2716 80.4233 82.784 80.8301 81.4948 81.673L82.5893 83.3469ZM85.9199 82.4233C86.6588 82.4233 87.3912 82.5461 88.1213 82.7957L88.7683 80.9032C87.8364 80.5846 86.8856 80.4233 85.9199 80.4233V82.4233ZM88.1213 82.7957C88.8096 83.031 89.4449 83.4153 90.03 83.9639L91.3979 82.5048C90.6194 81.775 89.7419 81.2361 88.7683 80.9032L88.1213 82.7957ZM90.0341 83.9677C90.5842 84.4777 91.0505 85.179 91.4116 86.1101L93.2763 85.3871C92.8277 84.2301 92.2074 83.2553 91.3938 82.501L90.0341 83.9677ZM91.4116 86.1101C91.7587 87.0053 91.9512 88.1597 91.9512 89.6051H93.9512C93.9512 87.9965 93.7388 86.58 93.2763 85.3871L91.4116 86.1101ZM91.9512 89.6051V90.6705H93.9512V89.6051H91.9512ZM92.9512 89.6705H80.3375V91.6705H92.9512V89.6705ZM81.3375 90.6705V88.4972H79.3375V90.6705H81.3375ZM80.3375 89.4972H90.3944V87.4972H80.3375V89.4972ZM91.3944 88.4972C91.3944 87.4375 91.1815 86.4545 90.7313 85.5714L88.9495 86.4798C89.2379 87.0455 89.3944 87.7102 89.3944 88.4972H91.3944ZM90.7348 85.5784C90.2916 84.6919 89.6477 83.9795 88.8126 83.4609L87.7574 85.1599C88.2717 85.4793 88.6647 85.9103 88.9459 86.4728L90.7348 85.5784ZM88.8166 83.4634C87.9665 82.9298 86.9876 82.6818 85.9199 82.6818V84.6818C86.6704 84.6818 87.2683 84.8529 87.7534 85.1574L88.8166 83.4634ZM85.9199 82.6818C84.7455 82.6818 83.6771 82.9762 82.7584 83.6005L83.8826 85.2546C84.427 84.8846 85.0915 84.6818 85.9199 84.6818V82.6818ZM82.7602 83.5993C81.8916 84.1868 81.2188 84.9588 80.7519 85.9012L82.5439 86.7892C82.8583 86.1548 83.3005 85.6484 83.8808 85.2558L82.7602 83.5993ZM80.7519 85.9012C80.2911 86.8311 80.062 87.8287 80.062 88.8807H82.062C82.062 88.1287 82.2235 87.4359 82.5439 86.7892L80.7519 85.9012ZM80.062 88.8807V90.3295H82.062V88.8807H80.062ZM80.062 90.3295C80.062 91.6765 80.2938 92.8852 80.8053 93.9165L82.5971 93.0281C82.2562 92.3407 82.062 91.4542 82.062 90.3295H80.062ZM80.8097 93.9254C81.3231 94.9353 82.0519 95.7339 82.9977 96.2857L84.0055 94.5581C83.4172 94.2149 82.9458 93.7139 82.5926 93.0192L80.8097 93.9254ZM83.0037 96.2891C83.9436 96.8287 85.0115 97.0824 86.1756 97.0824V95.0824C85.3084 95.0824 84.5937 94.8958 83.9995 94.5546L83.0037 96.2891ZM86.1756 97.0824C86.9289 97.0824 87.6386 96.9771 88.2929 96.7502L87.6378 94.8606C87.2268 95.003 86.7433 95.0824 86.1756 95.0824V97.0824ZM88.3001 96.7477C88.9664 96.511 89.556 96.1539 90.0549 95.6732L88.6671 94.233C88.3847 94.5052 88.0439 94.7163 87.6306 94.8631L88.3001 96.7477ZM90.0616 95.6667C90.5671 95.1704 90.9442 94.5665 91.2028 93.8767L89.3302 93.1744C89.1627 93.621 88.9361 93.9688 88.6604 94.2396L90.0616 95.6667ZM89.9963 94.4884L92.4252 95.1702L92.9657 93.2446L90.5368 92.5628L89.9963 94.4884ZM91.7404 93.911C91.5315 94.5843 91.183 95.1726 90.6872 95.6859L92.1257 97.0754C92.8372 96.3388 93.3482 95.4782 93.6506 94.5038L91.7404 93.911ZM90.6911 95.6818C90.1963 96.1883 89.5739 96.5968 88.8043 96.8985L89.5342 98.7606C90.5401 98.3663 91.4091 97.8088 92.1217 97.0795L90.6911 95.6818ZM88.8107 96.896C88.0546 97.1864 87.1809 97.3409 86.1756 97.3409V99.3409C87.3862 99.3409 88.5083 99.1545 89.5277 98.7631L88.8107 96.896ZM108.367 85.3011L108.639 86.2633L109.648 85.9777L109.315 84.9832L108.367 85.3011ZM106.108 85.9403L105.173 86.2934L105.497 87.1526L106.38 86.9025L106.108 85.9403ZM105.48 84.843L104.678 85.4405L104.684 85.4494L104.691 85.4581L105.48 84.843ZM104.372 83.9482L104.819 83.0537L104.372 83.9482ZM100.068 84.2891L100.635 85.1128L100.636 85.1116L100.068 84.2891ZM99.7587 87.5064L99.1355 88.2885L99.7587 87.5064ZM101.889 88.4119L101.647 89.3821L101.651 89.3831L101.889 88.4119ZM104.318 89.0085L104.08 89.9797L104.082 89.9803L104.318 89.0085ZM107.589 90.6385L106.875 91.3386L106.878 91.3421L107.589 90.6385ZM107.855 95.9545L107.048 95.3645L107.044 95.3696L107.855 95.9545ZM98.1287 97.2543L98.6809 96.4205L98.1287 97.2543ZM96.0513 94.0795L95.8088 93.1094L94.8755 93.3427L95.0725 94.2843L96.0513 94.0795ZM98.4377 93.483L99.406 93.2331L99.158 92.2721L98.1951 92.5128L98.4377 93.483ZM99.7267 95.4645L99.1551 96.285L99.1594 96.288L99.7267 95.4645ZM105.021 95.3793L105.607 96.1902L105.608 96.1891L105.021 95.3793ZM105.469 92.1406L104.768 92.8541L104.775 92.8605L105.469 92.1406ZM103.637 91.267L103.408 92.2407L103.41 92.241L103.637 91.267ZM100.909 90.6278L100.679 91.6009L100.681 91.6015L100.909 90.6278ZM97.6067 88.9766L96.8724 89.6555L96.8791 89.6626L97.6067 88.9766ZM97.3404 83.7031L96.5365 83.1083L96.5327 83.1135L97.3404 83.7031ZM99.4817 82.0305L99.0749 81.117L99.0722 81.1182L99.4817 82.0305ZM106.385 82.4886L105.775 83.2813L105.778 83.2835L106.385 82.4886ZM108.094 84.3389L105.836 84.9781L106.38 86.9025L108.639 86.2633L108.094 84.3389ZM107.044 85.5873C106.862 85.1061 106.6 84.6532 106.268 84.228L104.691 85.4581C104.913 85.7431 105.07 86.0217 105.173 86.2934L107.044 85.5873ZM106.281 84.2456C105.904 83.7393 105.405 83.3468 104.819 83.0537L103.924 84.8426C104.276 85.0183 104.515 85.2223 104.678 85.4405L106.281 84.2456ZM104.819 83.0537C104.167 82.728 103.4 82.5966 102.571 82.5966V84.5966C103.205 84.5966 103.638 84.6995 103.924 84.8426L104.819 83.0537ZM102.571 82.5966C101.415 82.5966 100.369 82.8648 99.4989 83.4666L100.636 85.1116C101.101 84.7901 101.725 84.5966 102.571 84.5966V82.5966ZM99.5007 83.4653C98.6133 84.076 98.0769 84.9431 98.0769 86.0256H100.077C100.077 85.7018 100.201 85.4112 100.635 85.1128L99.5007 83.4653ZM98.0769 86.0256C98.0769 86.9287 98.423 87.7207 99.1355 88.2885L100.382 86.7243C100.185 86.5677 100.077 86.3725 100.077 86.0256H98.0769ZM99.1355 88.2885C99.7548 88.782 100.627 89.1272 101.647 89.3821L102.132 87.4418C101.22 87.2137 100.672 86.9552 100.382 86.7243L99.1355 88.2885ZM101.651 89.3831L104.08 89.9797L104.557 88.0374L102.128 87.4408L101.651 89.3831ZM104.082 89.9803C105.444 90.3108 106.336 90.7892 106.875 91.3386L108.303 89.9384C107.407 89.0247 106.119 88.4165 104.554 88.0367L104.082 89.9803ZM106.878 91.3421C107.387 91.8558 107.665 92.5254 107.665 93.4403H109.665C109.665 92.0683 109.226 90.87 108.3 89.9349L106.878 91.3421ZM107.665 93.4403C107.665 94.1714 107.459 94.8017 107.048 95.3645L108.663 96.5446C109.331 95.6302 109.665 94.5843 109.665 93.4403H107.665ZM107.044 95.3696C106.63 95.9441 106.034 96.4225 105.212 96.7879L106.024 98.6155C107.12 98.1286 108.015 97.4423 108.666 96.5395L107.044 95.3696ZM105.212 96.7879C104.405 97.1465 103.433 97.3409 102.273 97.3409V99.3409C103.655 99.3409 104.913 99.1092 106.024 98.6155L105.212 96.7879ZM102.273 97.3409C100.747 97.3409 99.5716 97.0105 98.6809 96.4205L97.5765 98.088C98.8734 98.9469 100.461 99.3409 102.273 99.3409V97.3409ZM98.6809 96.4205C97.8261 95.8544 97.2724 95.0331 97.0301 93.8748L95.0725 94.2843C95.4126 95.9101 96.2438 97.2053 97.5765 98.088L98.6809 96.4205ZM96.2938 95.0497L98.6802 94.4531L98.1951 92.5128L95.8088 93.1094L96.2938 95.0497ZM97.4694 93.7328C97.7451 94.801 98.2925 95.6841 99.1551 96.285L100.298 94.644C99.8968 94.3642 99.5848 93.9262 99.406 93.2331L97.4694 93.7328ZM99.1594 96.288C100.012 96.8754 101.063 97.125 102.23 97.125V95.125C101.338 95.125 100.72 94.9342 100.294 94.641L99.1594 96.288ZM102.23 97.125C103.534 97.125 104.694 96.8491 105.607 96.1902L104.436 94.5684C103.972 94.9038 103.27 95.125 102.23 95.125V97.125ZM105.608 96.1891C106.499 95.5438 107.066 94.6644 107.066 93.5682H105.066C105.066 93.8782 104.936 94.2062 104.435 94.5695L105.608 96.1891ZM107.066 93.5682C107.066 92.7371 106.762 91.9987 106.163 91.4208L104.775 92.8605C104.971 93.0496 105.066 93.2629 105.066 93.5682H107.066ZM106.17 91.4272C105.59 90.8576 104.78 90.5065 103.863 90.2931L103.41 92.241C104.14 92.4111 104.553 92.6424 104.768 92.8541L106.17 91.4272ZM103.865 90.2934L101.137 89.6542L100.681 91.6015L103.408 92.2407L103.865 90.2934ZM101.14 89.6548C99.7419 89.3235 98.8518 88.8394 98.3343 88.2906L96.8791 89.6626C97.7679 90.6052 99.0794 91.2219 100.679 91.6009L101.14 89.6548ZM98.341 88.2977C97.8337 87.749 97.5627 87.0587 97.5627 86.1534H95.5627C95.5627 87.5066 95.9877 88.6984 96.8724 89.6554L98.341 88.2977ZM97.5627 86.1534C97.5627 85.4308 97.7611 84.8229 98.1481 84.2927L96.5327 83.1135C95.8828 84.0038 95.5627 85.0295 95.5627 86.1534H97.5627ZM98.1442 84.298C98.556 83.7415 99.1267 83.286 99.8912 82.9429L99.0722 81.1182C98.0327 81.5848 97.1759 82.2443 96.5365 83.1083L98.1442 84.298ZM99.8885 82.9441C100.651 82.6045 101.539 82.4233 102.571 82.4233V80.4233C101.302 80.4233 100.131 80.6469 99.0749 81.117L99.8885 82.9441ZM102.571 82.4233C104.054 82.4233 105.084 82.7492 105.775 83.2813L106.995 81.696C105.84 80.8076 104.327 80.4233 102.571 80.4233V82.4233ZM105.778 83.2835C106.542 83.8663 107.088 84.6339 107.419 85.6191L109.315 84.9832C108.864 83.6388 108.089 82.5315 106.992 81.6938L105.778 83.2835ZM119.566 81.6364H120.566V80.6364H119.566V81.6364ZM119.566 83.767V84.767H120.566V83.767H119.566ZM111.086 83.767H110.086V84.767H111.086V83.767ZM111.086 81.6364V80.6364H110.086V81.6364H111.086ZM113.558 77.7159V76.7159H112.558V77.7159H113.558ZM116.072 77.7159H117.072V76.7159H116.072V77.7159ZM116.381 94.9105L115.516 95.4122L115.522 95.4225L115.528 95.4327L116.381 94.9105ZM117.19 95.6136L116.844 96.5516L116.856 96.5561L116.868 96.5603L117.19 95.6136ZM118.927 95.7415L119.085 96.7289L119.104 96.7259L119.123 96.7221L118.927 95.7415ZM119.353 95.6562L120.328 95.4354L120.113 94.4844L119.157 94.6757L119.353 95.6562ZM119.864 97.9148L120.215 98.8511L121.032 98.5448L120.84 97.6939L119.864 97.9148ZM119.151 98.1065L118.946 97.1277L118.935 97.13L118.924 97.1325L119.151 98.1065ZM115.901 97.755L115.489 98.666L115.492 98.6676L115.901 97.755ZM114.218 96.3594L113.401 96.9353L113.405 96.9415L114.218 96.3594ZM118.566 81.6364V83.767H120.566V81.6364H118.566ZM119.566 82.767H111.086V84.767H119.566V82.767ZM112.086 83.767V81.6364H110.086V83.767H112.086ZM111.086 82.6364H119.566V80.6364H111.086V82.6364ZM113.558 78.7159H116.072V76.7159H113.558V78.7159ZM115.072 77.7159V93.3125H117.072V77.7159H115.072ZM115.072 93.3125C115.072 94.0866 115.178 94.8304 115.516 95.4122L117.246 94.4088C117.171 94.2804 117.072 93.9588 117.072 93.3125H115.072ZM115.528 95.4327C115.837 95.9379 116.272 96.3402 116.844 96.5516L117.537 94.6756C117.456 94.6456 117.35 94.5791 117.234 94.3884L115.528 95.4327ZM116.868 96.5603C117.31 96.7109 117.771 96.7841 118.245 96.7841V94.7841C117.98 94.7841 117.738 94.7436 117.513 94.667L116.868 96.5603ZM118.245 96.7841C118.55 96.7841 118.835 96.7689 119.085 96.7289L118.769 94.754C118.664 94.7709 118.494 94.7841 118.245 94.7841V96.7841ZM119.123 96.7221C119.301 96.6865 119.443 96.6581 119.549 96.6368L119.157 94.6757C119.05 94.697 118.908 94.7254 118.731 94.7609L119.123 96.7221ZM118.378 95.8771L118.889 98.1356L120.84 97.6939L120.328 95.4354L118.378 95.8771ZM119.513 96.9784C119.412 97.0163 119.231 97.068 118.946 97.1277L119.355 99.0853C119.681 99.0172 119.976 98.9411 120.215 98.8511L119.513 96.9784ZM118.924 97.1325C118.72 97.18 118.415 97.2131 117.989 97.2131V99.2131C118.501 99.2131 118.971 99.1751 119.377 99.0805L118.924 97.1325ZM117.989 97.2131C117.427 97.2131 116.87 97.0932 116.31 96.8423L115.492 98.6676C116.296 99.0275 117.131 99.2131 117.989 99.2131V97.2131ZM116.314 96.844C115.805 96.6139 115.38 96.265 115.031 95.7773L113.405 96.9415C113.951 97.7038 114.648 98.2853 115.489 98.666L116.314 96.844ZM115.036 95.7834C114.74 95.3643 114.558 94.7908 114.558 93.9943H112.558C112.558 95.1013 112.815 96.1044 113.401 96.9353L115.036 95.7834ZM114.558 93.9943V77.7159H112.558V93.9943H114.558ZM125.34 97.7976L124.914 98.7024L124.921 98.7053L125.34 97.7976ZM123.327 96.0824L122.492 96.6335L122.495 96.6371L123.327 96.0824ZM123.135 91.0753L123.979 91.6108L123.982 91.6062L123.135 91.0753ZM124.616 89.6903L125.091 90.5702L124.616 89.6903ZM126.661 88.9446L126.875 89.9215L126.882 89.9199L126.661 88.9446ZM128.93 88.5398L128.803 87.5479L128.801 87.5482L128.93 88.5398ZM131.349 88.2521L131.452 89.2469L131.462 89.2457L131.349 88.2521ZM132.712 87.9006L132.223 87.0284L132.214 87.0337L132.712 87.9006ZM132.286 84.5128L131.57 85.2111L131.575 85.2155L132.286 84.5128ZM126.874 84.4276L127.485 85.2196L126.874 84.4276ZM125.436 86.1108L125.1 87.0525L125.959 87.3594L126.343 86.5319L125.436 86.1108ZM123.05 85.2585L122.131 84.8646L121.711 85.8424L122.713 86.2003L123.05 85.2585ZM124.754 82.9361L125.369 83.7246L125.37 83.7237L124.754 82.9361ZM127.098 81.7642L127.35 82.7319L127.356 82.7304L127.098 81.7642ZM131.423 81.6151L131.239 82.598L131.251 82.6L131.423 81.6151ZM133.415 82.3714L132.901 83.229L132.905 83.2314L133.415 82.3714ZM135.024 84.108L134.148 84.5902V84.5902L135.024 84.108ZM135.663 98V99H136.663V98H135.663ZM133.149 98H132.149V99H133.149V98ZM133.149 95.7841H134.149V94.7841H133.149V95.7841ZM133.021 95.7841V94.7841H132.392L132.12 95.3514L133.021 95.7841ZM132.169 96.924L132.882 97.6248V97.6248L132.169 96.924ZM130.582 97.9574L130.187 97.0388L130.582 97.9574ZM131.061 95.5391L130.568 94.6692L130.564 94.6714L131.061 95.5391ZM132.616 94.0263L131.749 93.528L131.745 93.5355L132.616 94.0263ZM133.149 89.7756H134.149V87.0135L132.381 89.1354L133.149 89.7756ZM132.446 90.1271L132.716 91.0902L132.728 91.0865L132.446 90.1271ZM131.21 90.3935L131.362 91.3819L131.375 91.3799L131.21 90.3935ZM129.857 90.5852L129.971 91.5788L129.985 91.577L129.857 90.5852ZM128.803 90.7131L128.932 91.7047L128.933 91.7045L128.803 90.7131ZM126.97 91.1286L127.283 92.0785L127.29 92.076L126.97 91.1286ZM125.607 91.9702L124.872 91.2913L124.872 91.2919L125.607 91.9702ZM126.065 95.4645L125.495 96.2867L125.506 96.2938L126.065 95.4645ZM128.163 97.3835C127.255 97.3835 126.459 97.2131 125.76 96.8898L124.921 98.7053C125.912 99.1633 126.998 99.3835 128.163 99.3835V97.3835ZM125.766 96.8928C125.078 96.5692 124.551 96.1154 124.159 95.5277L122.495 96.6371C123.097 97.5409 123.912 98.2306 124.914 98.7024L125.766 96.8928ZM124.161 95.5313C123.79 94.9697 123.581 94.2606 123.581 93.3551H121.581C121.581 94.5803 121.869 95.6894 122.492 96.6334L124.161 95.5313ZM123.581 93.3551C123.581 92.5412 123.742 91.9852 123.979 91.6108L122.29 90.5397C121.789 91.3302 121.581 92.294 121.581 93.3551H123.581ZM123.982 91.6062C124.259 91.1647 124.624 90.8226 125.091 90.5702L124.14 88.8105C123.372 89.2257 122.75 89.8069 122.288 90.5444L123.982 91.6062ZM125.091 90.5702C125.62 90.2844 126.213 90.0665 126.875 89.9214L126.447 87.9678C125.618 88.1494 124.847 88.4287 124.14 88.8105L125.091 90.5702ZM126.882 89.9199C127.605 89.7562 128.331 89.6267 129.06 89.5313L128.801 87.5482C128.01 87.6517 127.223 87.7921 126.44 87.9693L126.882 89.9199ZM129.058 89.5316C130.048 89.4043 130.845 89.3095 131.452 89.2468L131.246 87.2574C130.616 87.3226 129.801 87.4196 128.803 87.5479L129.058 89.5316ZM131.462 89.2457C132.12 89.1709 132.743 89.0362 133.211 88.7675L132.214 87.0337C132.113 87.0916 131.827 87.1913 131.236 87.2585L131.462 89.2457ZM133.202 88.7727C133.88 88.392 134.149 87.7239 134.149 87.0483H132.149C132.149 87.1335 132.134 87.1408 132.15 87.1089C132.158 87.0927 132.171 87.0741 132.188 87.0569C132.204 87.0399 132.218 87.0312 132.223 87.0284L133.202 88.7727ZM134.149 87.0483V86.9631H132.149V87.0483H134.149ZM134.149 86.9631C134.149 85.7269 133.806 84.6286 132.998 83.81L131.575 85.2155C131.917 85.5617 132.149 86.0969 132.149 86.9631H134.149ZM133.002 83.8145C132.178 82.9698 131.009 82.6392 129.697 82.6392V84.6392C130.701 84.6392 131.258 84.891 131.57 85.2111L133.002 83.8145ZM129.697 82.6392C128.362 82.6392 127.178 82.9309 126.264 83.6355L127.485 85.2196C127.934 84.8731 128.633 84.6392 129.697 84.6392V82.6392ZM126.264 83.6355C125.493 84.2299 124.891 84.9095 124.529 85.6897L126.343 86.5319C126.535 86.1189 126.892 85.6763 127.485 85.2196L126.264 83.6355ZM125.772 85.1691L123.386 84.3168L122.713 86.2003L125.1 87.0525L125.772 85.1691ZM123.969 85.6524C124.342 84.7821 124.816 84.1558 125.369 83.7246L124.139 82.1476C123.272 82.8243 122.61 83.7463 122.131 84.8646L123.969 85.6524ZM125.37 83.7237C125.985 83.2433 126.643 82.9161 127.35 82.7319L126.846 80.7965C125.863 81.0526 124.959 81.5067 124.138 82.1484L125.37 83.7237ZM127.356 82.7304C128.13 82.524 128.881 82.4233 129.612 82.4233V80.4233C128.695 80.4233 127.771 80.5499 126.84 80.798L127.356 82.7304ZM129.612 82.4233C130.06 82.4233 130.6 82.4781 131.239 82.5979L131.608 80.6322C130.883 80.4963 130.216 80.4233 129.612 80.4233V82.4233ZM131.251 82.6C131.811 82.6982 132.36 82.9043 132.901 83.2289L133.93 81.514C133.193 81.0715 132.413 80.7733 131.596 80.6301L131.251 82.6ZM132.905 83.2314C133.373 83.509 133.793 83.9446 134.148 84.5902L135.9 83.6257C135.403 82.723 134.751 82.0009 133.926 81.5115L132.905 83.2314ZM134.148 84.5902C134.464 85.1632 134.663 86.0139 134.663 87.2188H136.663C136.663 85.8242 136.437 84.601 135.9 83.6257L134.148 84.5902ZM134.663 87.2188V98H136.663V87.2188H134.663ZM135.663 97H133.149V99H135.663V97ZM134.149 98V95.7841H132.149V98H134.149ZM133.149 94.7841H133.021V96.7841H133.149V94.7841ZM132.12 95.3514C132.013 95.5742 131.807 95.8653 131.456 96.2232L132.882 97.6248C133.326 97.1731 133.689 96.7043 133.923 96.2168L132.12 95.3514ZM131.456 96.2232C131.17 96.5143 130.758 96.7928 130.187 97.0388L130.977 98.876C131.726 98.5538 132.373 98.1433 132.882 97.6248L131.456 96.2232ZM130.187 97.0388C129.684 97.2548 129.021 97.3835 128.163 97.3835V99.3835C129.209 99.3835 130.158 99.2281 130.977 98.876L130.187 97.0388ZM128.547 97.125C129.67 97.125 130.69 96.9042 131.558 96.4067L130.564 94.6714C130.069 94.9552 129.412 95.125 128.547 95.125V97.125ZM131.554 96.409C132.382 95.9394 133.04 95.3113 133.488 94.517L131.745 93.5355C131.496 93.9771 131.118 94.3575 130.568 94.6692L131.554 96.409ZM133.483 94.5246C133.922 93.7622 134.149 92.9414 134.149 92.0767H132.149C132.149 92.5756 132.022 93.0546 131.749 93.528L133.483 94.5246ZM134.149 92.0767V89.7756H132.149V92.0767H134.149ZM132.381 89.1354C132.42 89.0882 132.453 89.0639 132.462 89.0574C132.471 89.0505 132.468 89.0538 132.446 89.0649C132.4 89.0883 132.311 89.1246 132.164 89.1678L132.728 91.0865C132.944 91.0231 133.153 90.9476 133.341 90.8538C133.518 90.7651 133.74 90.629 133.917 90.4158L132.381 89.1354ZM132.176 89.1642C131.864 89.2516 131.489 89.3333 131.046 89.4071L131.375 91.3799C131.869 91.2974 132.318 91.2015 132.716 91.0901L132.176 89.1642ZM131.058 89.4051C130.604 89.4749 130.161 89.5377 129.729 89.5934L129.985 91.577C130.434 91.5191 130.893 91.454 131.362 91.3818L131.058 89.4051ZM129.743 89.5917C129.307 89.6418 128.95 89.6851 128.672 89.7216L128.933 91.7045C129.195 91.67 129.541 91.6281 129.971 91.5787L129.743 89.5917ZM128.673 89.7215C127.961 89.8143 127.286 89.9665 126.65 90.1811L127.29 92.076C127.791 91.9071 128.337 91.7823 128.932 91.7047L128.673 89.7215ZM126.658 90.1787C125.96 90.4082 125.352 90.7724 124.872 91.2913L126.341 92.649C126.557 92.4151 126.858 92.2182 127.283 92.0784L126.658 90.1787ZM124.872 91.2919C124.318 91.8921 124.095 92.6632 124.095 93.483H126.095C126.095 93.0243 126.214 92.7868 126.341 92.6485L124.872 91.2919ZM124.095 93.483C124.095 94.642 124.546 95.6294 125.495 96.2867L126.634 94.6423C126.291 94.4047 126.095 94.0711 126.095 93.483H124.095ZM125.506 96.2938C126.364 96.8721 127.4 97.125 128.547 97.125V95.125C127.691 95.125 127.072 94.9376 126.623 94.6352L125.506 96.2938ZM150.565 81.6364V80.6364H149.565V81.6364H150.565ZM153.079 81.6364H154.079V80.6364H153.079V81.6364ZM153.079 98V99H154.079V98H153.079ZM150.565 98H149.565V99H150.565V98ZM150.565 95.2301H151.565V94.2301H150.565V95.2301ZM150.394 95.2301V94.2301H149.755L149.486 94.8111L150.394 95.2301ZM148.605 97.3501L149.184 98.1653L149.189 98.1619L148.605 97.3501ZM142.809 97.5419L142.313 98.4102L142.319 98.4135L142.809 97.5419ZM140.934 95.4964L140.038 95.9409L140.04 95.9437L140.934 95.4964ZM140.252 81.6364V80.6364H139.252V81.6364H140.252ZM142.767 81.6364H143.767V80.6364H142.767V81.6364ZM143.768 94.7188L143.039 95.4037L143.043 95.4075L143.768 94.7188ZM148.253 95.3047L147.814 94.4064L147.81 94.4083L148.253 95.3047ZM149.894 93.8345L149.066 93.2737L149.062 93.2798L149.894 93.8345ZM151.565 91.3097V81.6364H149.565V91.3097H151.565ZM150.565 82.6364H153.079V80.6364H150.565V82.6364ZM152.079 81.6364V98H154.079V81.6364H152.079ZM153.079 97H150.565V99H153.079V97ZM151.565 98V95.2301H149.565V98H151.565ZM150.565 94.2301H150.394V96.2301H150.565V94.2301ZM149.486 94.8111C149.182 95.4715 148.703 96.0474 148.021 96.5383L149.189 98.1619C150.125 97.4881 150.84 96.6507 151.302 95.6492L149.486 94.8111ZM148.025 96.535C147.422 96.9634 146.616 97.2131 145.536 97.2131V99.2131C146.929 99.2131 148.167 98.8874 149.184 98.1653L148.025 96.535ZM145.536 97.2131C144.664 97.2131 143.928 97.0238 143.299 96.6703L142.319 98.4135C143.281 98.9549 144.363 99.2131 145.536 99.2131V97.2131ZM143.305 96.6737C142.7 96.3276 142.205 95.8018 141.829 95.0492L140.04 95.9437C140.573 97.0093 141.328 97.8471 142.313 98.4101L143.305 96.6737ZM141.83 95.052C141.464 94.3145 141.252 93.3248 141.252 92.0341H139.252C139.252 93.5275 139.495 94.846 140.038 95.9409L141.83 95.052ZM141.252 92.0341V81.6364H139.252V92.0341H141.252ZM140.252 82.6364H142.767V80.6364H140.252V82.6364ZM141.767 81.6364V91.8636H143.767V81.6364H141.767ZM141.767 91.8636C141.767 93.2512 142.16 94.4684 143.039 95.4037L144.497 94.0338C144.04 93.5486 143.767 92.8624 143.767 91.8636H141.767ZM143.043 95.4075C143.92 96.3306 145.048 96.7841 146.346 96.7841V94.7841C145.556 94.7841 144.965 94.5274 144.493 94.03L143.043 95.4075ZM146.346 96.7841C147.147 96.7841 147.933 96.5784 148.696 96.2011L147.81 94.4083C147.28 94.6702 146.795 94.7841 146.346 94.7841V96.7841ZM148.692 96.203C149.519 95.7986 150.196 95.1831 150.726 94.3892L149.062 93.2798C148.71 93.8069 148.294 94.1716 147.814 94.4064L148.692 96.203ZM150.722 94.3954C151.309 93.5283 151.565 92.4762 151.565 91.3097H149.565C149.565 92.1885 149.373 92.8197 149.066 93.2737L150.722 94.3954ZM157.684 98H156.684V99H157.684V98ZM157.684 81.6364V80.6364H156.684V81.6364H157.684ZM160.113 81.6364H161.113V80.6364H160.113V81.6364ZM160.113 84.108H159.113V85.108H160.113V84.108ZM160.283 84.108V85.108H160.981L161.222 84.4537L160.283 84.108ZM161.903 82.1371L161.36 81.2969L161.903 82.1371ZM165.866 81.4233H166.866V80.5183L165.965 80.4283L165.866 81.4233ZM165.866 83.9801L165.623 84.9503L166.866 85.2609V83.9801H165.866ZM165.28 83.8842L165.115 84.8706L165.129 84.8728L165.142 84.8746L165.28 83.8842ZM162.201 84.3104L162.668 85.1944L162.672 85.1924L162.201 84.3104ZM160.731 85.674L159.882 85.1459L159.88 85.1487L160.731 85.674ZM160.198 98V99H161.198V98H160.198ZM158.684 98V81.6364H156.684V98H158.684ZM157.684 82.6364H160.113V80.6364H157.684V82.6364ZM159.113 81.6364V84.108H161.113V81.6364H159.113ZM160.113 85.108H160.283V83.108H160.113V85.108ZM161.222 84.4537C161.439 83.8635 161.831 83.3737 162.445 82.9773L161.36 81.2969C160.412 81.909 159.724 82.733 159.345 83.7622L161.222 84.4537ZM162.445 82.9773C163.056 82.5831 163.746 82.3807 164.545 82.3807V80.3807C163.383 80.3807 162.312 80.6825 161.36 81.2969L162.445 82.9773ZM164.545 82.3807C164.718 82.3807 164.939 82.384 165.212 82.391L165.263 80.3917C164.981 80.3844 164.741 80.3807 164.545 80.3807V82.3807ZM165.212 82.391C165.482 82.3979 165.662 82.4079 165.766 82.4183L165.965 80.4283C165.785 80.4103 165.546 80.3989 165.263 80.3917L165.212 82.391ZM164.866 81.4233V83.9801H166.866V81.4233H164.866ZM166.108 83.01C165.961 82.9731 165.708 82.9344 165.418 82.8938L165.142 84.8746C165.29 84.8954 165.407 84.9128 165.494 84.927C165.589 84.9427 165.624 84.9505 165.623 84.9503L166.108 83.01ZM165.444 82.8978C165.086 82.8382 164.715 82.8097 164.332 82.8097V84.8097C164.616 84.8097 164.877 84.8308 165.115 84.8706L165.444 82.8978ZM164.332 82.8097C163.392 82.8097 162.517 83.008 161.73 83.4283L162.672 85.1924C163.135 84.9452 163.68 84.8097 164.332 84.8097V82.8097ZM161.734 83.4263C160.962 83.8341 160.339 84.4102 159.882 85.1459L161.58 86.2021C161.847 85.7731 162.204 85.44 162.668 85.1944L161.734 83.4263ZM159.88 85.1487C159.418 85.8964 159.198 86.7385 159.198 87.6449H161.198C161.198 87.074 161.333 86.6022 161.582 86.1993L159.88 85.1487ZM159.198 87.6449V98H161.198V87.6449H159.198ZM160.198 97H157.684V99H160.198V97ZM170.838 97.7976L170.412 98.7024L170.419 98.7053L170.838 97.7976ZM168.825 96.0824L167.99 96.6335L167.993 96.6371L168.825 96.0824ZM168.633 91.0753L169.478 91.6108L169.48 91.6062L168.633 91.0753ZM170.114 89.6903L170.589 90.5702L170.114 89.6903ZM172.159 88.9446L172.373 89.9215L172.38 89.9199L172.159 88.9446ZM174.428 88.5398L174.301 87.5479L174.299 87.5482L174.428 88.5398ZM176.847 88.2521L176.95 89.2469L176.96 89.2457L176.847 88.2521ZM178.21 87.9006L177.721 87.0284L177.712 87.0337L178.21 87.9006ZM177.784 84.5128L177.068 85.2111L177.073 85.2155L177.784 84.5128ZM172.372 84.4276L172.983 85.2196L172.372 84.4276ZM170.934 86.1108L170.598 87.0525L171.457 87.3594L171.841 86.5319L170.934 86.1108ZM168.548 85.2585L167.629 84.8646L167.21 85.8424L168.211 86.2003L168.548 85.2585ZM170.252 82.9361L170.867 83.7246L170.868 83.7237L170.252 82.9361ZM172.596 81.7642L172.848 82.7319L172.854 82.7304L172.596 81.7642ZM176.921 81.6151L176.737 82.598L176.749 82.6L176.921 81.6151ZM178.914 82.3714L178.399 83.229L178.403 83.2314L178.914 82.3714ZM180.522 84.108L179.646 84.5902V84.5902L180.522 84.108ZM181.161 98V99H182.161V98H181.161ZM178.647 98H177.647V99H178.647V98ZM178.647 95.7841H179.647V94.7841H178.647V95.7841ZM178.519 95.7841V94.7841H177.89L177.618 95.3514L178.519 95.7841ZM177.667 96.924L178.38 97.6248V97.6248L177.667 96.924ZM176.08 97.9574L175.685 97.0388L176.08 97.9574ZM176.559 95.5391L176.066 94.6692L176.062 94.6714L176.559 95.5391ZM178.115 94.0263L177.247 93.528L177.243 93.5355L178.115 94.0263ZM178.647 89.7756H179.647V87.0135L177.879 89.1354L178.647 89.7756ZM177.944 90.1271L178.214 91.0902L178.226 91.0865L177.944 90.1271ZM176.708 90.3935L176.86 91.3819L176.873 91.3799L176.708 90.3935ZM175.355 90.5852L175.469 91.5788L175.483 91.577L175.355 90.5852ZM174.301 90.7131L174.43 91.7047L174.431 91.7045L174.301 90.7131ZM172.468 91.1286L172.781 92.0785L172.788 92.076L172.468 91.1286ZM171.105 91.9702L170.37 91.2913L170.37 91.2919L171.105 91.9702ZM171.563 95.4645L170.993 96.2867L171.004 96.2938L171.563 95.4645ZM173.661 97.3835C172.753 97.3835 171.957 97.2131 171.258 96.8898L170.419 98.7053C171.41 99.1633 172.496 99.3835 173.661 99.3835V97.3835ZM171.264 96.8928C170.576 96.5692 170.049 96.1154 169.657 95.5277L167.993 96.6371C168.595 97.5409 169.41 98.2306 170.412 98.7024L171.264 96.8928ZM169.659 95.5313C169.288 94.9697 169.079 94.2606 169.079 93.3551H167.079C167.079 94.5803 167.367 95.6894 167.99 96.6334L169.659 95.5313ZM169.079 93.3551C169.079 92.5412 169.24 91.9852 169.478 91.6108L167.788 90.5397C167.287 91.3302 167.079 92.294 167.079 93.3551H169.079ZM169.48 91.6062C169.757 91.1647 170.122 90.8226 170.589 90.5702L169.639 88.8105C168.87 89.2257 168.248 89.8069 167.786 90.5444L169.48 91.6062ZM170.589 90.5702C171.118 90.2844 171.711 90.0665 172.373 89.9214L171.945 87.9678C171.116 88.1494 170.345 88.4287 169.639 88.8105L170.589 90.5702ZM172.38 89.9199C173.103 89.7562 173.829 89.6267 174.558 89.5313L174.299 87.5482C173.508 87.6517 172.721 87.7921 171.938 87.9693L172.38 89.9199ZM174.556 89.5316C175.546 89.4043 176.343 89.3095 176.95 89.2468L176.744 87.2574C176.114 87.3226 175.299 87.4196 174.301 87.5479L174.556 89.5316ZM176.96 89.2457C177.619 89.1709 178.241 89.0362 178.709 88.7675L177.712 87.0337C177.611 87.0916 177.325 87.1913 176.734 87.2585L176.96 89.2457ZM178.7 88.7727C179.378 88.392 179.647 87.7239 179.647 87.0483H177.647C177.647 87.1335 177.632 87.1408 177.648 87.1089C177.656 87.0927 177.669 87.0741 177.686 87.0569C177.702 87.0399 177.716 87.0312 177.721 87.0284L178.7 88.7727ZM179.647 87.0483V86.9631H177.647V87.0483H179.647ZM179.647 86.9631C179.647 85.7269 179.304 84.6286 178.496 83.81L177.073 85.2155C177.415 85.5617 177.647 86.0969 177.647 86.9631H179.647ZM178.5 83.8145C177.676 82.9698 176.507 82.6392 175.195 82.6392V84.6392C176.199 84.6392 176.756 84.891 177.068 85.2111L178.5 83.8145ZM175.195 82.6392C173.86 82.6392 172.676 82.9309 171.762 83.6355L172.983 85.2196C173.432 84.8731 174.131 84.6392 175.195 84.6392V82.6392ZM171.762 83.6355C170.991 84.2299 170.389 84.9095 170.027 85.6897L171.841 86.5319C172.033 86.1189 172.39 85.6763 172.983 85.2196L171.762 83.6355ZM171.27 85.1691L168.884 84.3168L168.211 86.2003L170.598 87.0525L171.27 85.1691ZM169.467 85.6524C169.84 84.7821 170.314 84.1558 170.867 83.7246L169.637 82.1476C168.77 82.8243 168.108 83.7463 167.629 84.8646L169.467 85.6524ZM170.868 83.7237C171.483 83.2433 172.141 82.9161 172.848 82.7319L172.344 80.7965C171.361 81.0526 170.457 81.5067 169.636 82.1484L170.868 83.7237ZM172.854 82.7304C173.628 82.524 174.379 82.4233 175.11 82.4233V80.4233C174.193 80.4233 173.269 80.5499 172.338 80.798L172.854 82.7304ZM175.11 82.4233C175.558 82.4233 176.098 82.4781 176.737 82.5979L177.106 80.6322C176.381 80.4963 175.714 80.4233 175.11 80.4233V82.4233ZM176.749 82.6C177.309 82.6982 177.858 82.9043 178.399 83.2289L179.428 81.514C178.691 81.0715 177.911 80.7733 177.094 80.6301L176.749 82.6ZM178.403 83.2314C178.871 83.509 179.291 83.9446 179.646 84.5902L181.398 83.6257C180.901 82.723 180.249 82.0009 179.424 81.5115L178.403 83.2314ZM179.646 84.5902C179.962 85.1632 180.161 86.0139 180.161 87.2188H182.161C182.161 85.8242 181.935 84.601 181.398 83.6257L179.646 84.5902ZM180.161 87.2188V98H182.161V87.2188H180.161ZM181.161 97H178.647V99H181.161V97ZM179.647 98V95.7841H177.647V98H179.647ZM178.647 94.7841H178.519V96.7841H178.647V94.7841ZM177.618 95.3514C177.511 95.5742 177.305 95.8653 176.954 96.2232L178.38 97.6248C178.824 97.1731 179.187 96.7043 179.421 96.2168L177.618 95.3514ZM176.954 96.2232C176.668 96.5143 176.257 96.7928 175.685 97.0388L176.475 98.876C177.224 98.5538 177.871 98.1433 178.38 97.6248L176.954 96.2232ZM175.685 97.0388C175.182 97.2548 174.519 97.3835 173.661 97.3835V99.3835C174.707 99.3835 175.656 99.2281 176.475 98.876L175.685 97.0388ZM174.045 97.125C175.168 97.125 176.188 96.9042 177.056 96.4067L176.062 94.6714C175.567 94.9552 174.91 95.125 174.045 95.125V97.125ZM177.052 96.409C177.88 95.9394 178.538 95.3113 178.986 94.517L177.243 93.5355C176.995 93.9771 176.616 94.3575 176.066 94.6692L177.052 96.409ZM178.982 94.5246C179.42 93.7622 179.647 92.9414 179.647 92.0767H177.647C177.647 92.5756 177.52 93.0546 177.248 93.528L178.982 94.5246ZM179.647 92.0767V89.7756H177.647V92.0767H179.647ZM177.879 89.1354C177.918 89.0882 177.951 89.0639 177.96 89.0574C177.969 89.0505 177.966 89.0538 177.944 89.0649C177.898 89.0883 177.809 89.1246 177.662 89.1678L178.226 91.0865C178.442 91.0231 178.651 90.9476 178.839 90.8538C179.016 90.7651 179.238 90.629 179.415 90.4158L177.879 89.1354ZM177.674 89.1642C177.362 89.2516 176.987 89.3333 176.544 89.4071L176.873 91.3799C177.367 91.2974 177.816 91.2015 178.214 91.0901L177.674 89.1642ZM176.556 89.4051C176.102 89.4749 175.659 89.5377 175.227 89.5934L175.483 91.577C175.932 91.5191 176.391 91.454 176.86 91.3818L176.556 89.4051ZM175.241 89.5917C174.805 89.6418 174.448 89.6851 174.17 89.7216L174.431 91.7045C174.693 91.67 175.039 91.6281 175.469 91.5787L175.241 89.5917ZM174.171 89.7215C173.459 89.8143 172.784 89.9665 172.148 90.1811L172.788 92.076C173.289 91.9071 173.835 91.7823 174.43 91.7047L174.171 89.7215ZM172.156 90.1787C171.458 90.4082 170.85 90.7724 170.37 91.2913L171.839 92.649C172.055 92.4151 172.356 92.2182 172.781 92.0784L172.156 90.1787ZM170.37 91.2919C169.816 91.8921 169.593 92.6632 169.593 93.483H171.593C171.593 93.0243 171.712 92.7868 171.839 92.6485L170.37 91.2919ZM169.593 93.483C169.593 94.642 170.044 95.6294 170.993 96.2867L172.132 94.6423C171.789 94.4047 171.593 94.0711 171.593 93.483H169.593ZM171.004 96.2938C171.862 96.8721 172.898 97.125 174.045 97.125V95.125C173.189 95.125 172.57 94.9376 172.122 94.6352L171.004 96.2938ZM188.265 98V99H189.265V98H188.265ZM185.75 98H184.75V99H185.75V98ZM185.75 81.6364V80.6364H184.75V81.6364H185.75ZM188.179 81.6364H189.179V80.6364H188.179V81.6364ZM188.179 84.1932H187.179V85.1932H188.179V84.1932ZM188.392 84.1932V85.1932H189.032L189.3 84.6122L188.392 84.1932ZM190.14 82.1903L190.682 83.0305L190.687 83.027L190.14 82.1903ZM196.074 82.1051L195.594 82.9825L195.599 82.9856L196.074 82.1051ZM198.012 84.1506L197.119 84.6006L197.121 84.6033L198.012 84.1506ZM198.705 98V99H199.705V98H198.705ZM196.191 98H195.191V99H196.191V98ZM195.189 84.7685L194.454 85.4462L194.457 85.4497L195.189 84.7685ZM190.289 84.2038L189.806 83.3278L189.802 83.3301L190.289 84.2038ZM188.808 85.7273L187.929 85.2504L188.808 85.7273ZM187.265 88.1562V98H189.265V88.1562H187.265ZM188.265 97H185.75V99H188.265V97ZM186.75 98V81.6364H184.75V98H186.75ZM185.75 82.6364H188.179V80.6364H185.75V82.6364ZM187.179 81.6364V84.1932H189.179V81.6364H187.179ZM188.179 85.1932H188.392V83.1932H188.179V85.1932ZM189.3 84.6122C189.603 83.9564 190.057 83.4337 190.682 83.0305L189.597 81.3502C188.659 81.9555 187.949 82.7681 187.484 83.7741L189.3 84.6122ZM190.687 83.027C191.261 82.6516 192.062 82.4233 193.165 82.4233V80.4233C191.797 80.4233 190.581 80.7063 189.592 81.3536L190.687 83.027ZM193.165 82.4233C194.134 82.4233 194.933 82.6211 195.594 82.9824L196.553 81.2278C195.552 80.6801 194.412 80.4233 193.165 80.4233V82.4233ZM195.599 82.9856C196.234 83.3273 196.742 83.8507 197.119 84.6005L198.905 83.7006C198.36 82.6181 197.575 81.7778 196.548 81.2246L195.599 82.9856ZM197.121 84.6033C197.49 85.3305 197.705 86.313 197.705 87.6023H199.705C199.705 86.1074 199.458 84.7889 198.904 83.6978L197.121 84.6033ZM197.705 87.6023V98H199.705V87.6023H197.705ZM198.705 97H196.191V99H198.705V97ZM197.191 98V87.7727H195.191V98H197.191ZM197.191 87.7727C197.191 86.3154 196.809 85.0414 195.921 84.0872L194.457 85.4497C194.904 85.9302 195.191 86.659 195.191 87.7727H197.191ZM195.925 84.0908C195.033 83.1234 193.829 82.6818 192.441 82.6818V84.6818C193.382 84.6818 194.01 84.9647 194.454 85.4461L195.925 84.0908ZM192.441 82.6818C191.489 82.6818 190.602 82.8896 189.806 83.3278L190.771 85.0798C191.239 84.822 191.787 84.6818 192.441 84.6818V82.6818ZM189.802 83.3301C189.001 83.7763 188.376 84.4267 187.929 85.2504L189.687 86.2042C189.964 85.6926 190.326 85.3274 190.775 85.0775L189.802 83.3301ZM187.929 85.2504C187.47 86.0969 187.265 87.0794 187.265 88.1562H189.265C189.265 87.3297 189.422 86.6929 189.687 86.2042L187.929 85.2504ZM210.416 81.6364H211.416V80.6364H210.416V81.6364ZM210.416 83.767V84.767H211.416V83.767H210.416ZM201.936 83.767H200.936V84.767H201.936V83.767ZM201.936 81.6364V80.6364H200.936V81.6364H201.936ZM204.407 77.7159V76.7159H203.407V77.7159H204.407ZM206.921 77.7159H207.921V76.7159H206.921V77.7159ZM207.23 94.9105L206.365 95.4122L206.371 95.4225L206.377 95.4327L207.23 94.9105ZM208.04 95.6136L207.693 96.5516L207.705 96.5561L207.718 96.5603L208.04 95.6136ZM209.776 95.7415L209.934 96.7289L209.954 96.7259L209.973 96.7221L209.776 95.7415ZM210.203 95.6562L211.178 95.4354L210.963 94.4844L210.006 94.6757L210.203 95.6562ZM210.714 97.9148L211.065 98.8511L211.882 98.5448L211.689 97.6939L210.714 97.9148ZM210 98.1065L209.795 97.1277L209.784 97.13L209.774 97.1325L210 98.1065ZM206.751 97.755L206.339 98.666L206.342 98.6676L206.751 97.755ZM205.068 96.3594L204.25 96.9353L204.255 96.9415L205.068 96.3594ZM209.416 81.6364V83.767H211.416V81.6364H209.416ZM210.416 82.767H201.936V84.767H210.416V82.767ZM202.936 83.767V81.6364H200.936V83.767H202.936ZM201.936 82.6364H210.416V80.6364H201.936V82.6364ZM204.407 78.7159H206.921V76.7159H204.407V78.7159ZM205.921 77.7159V93.3125H207.921V77.7159H205.921ZM205.921 93.3125C205.921 94.0866 206.028 94.8304 206.365 95.4122L208.095 94.4088C208.021 94.2804 207.921 93.9588 207.921 93.3125H205.921ZM206.377 95.4327C206.687 95.9379 207.121 96.3402 207.693 96.5516L208.387 94.6756C208.305 94.6456 208.2 94.5791 208.083 94.3884L206.377 95.4327ZM207.718 96.5603C208.16 96.7109 208.621 96.7841 209.095 96.7841V94.7841C208.83 94.7841 208.587 94.7436 208.362 94.667L207.718 96.5603ZM209.095 96.7841C209.4 96.7841 209.685 96.7689 209.934 96.7289L209.618 94.754C209.513 94.7709 209.344 94.7841 209.095 94.7841V96.7841ZM209.973 96.7221C210.15 96.6865 210.292 96.6581 210.399 96.6368L210.006 94.6757C209.9 94.697 209.758 94.7254 209.58 94.7609L209.973 96.7221ZM209.227 95.8771L209.739 98.1356L211.689 97.6939L211.178 95.4354L209.227 95.8771ZM210.363 96.9784C210.262 97.0163 210.081 97.068 209.795 97.1277L210.205 99.0853C210.53 99.0172 210.825 98.9411 211.065 98.8511L210.363 96.9784ZM209.774 97.1325C209.569 97.18 209.265 97.2131 208.839 97.2131V99.2131C209.35 99.2131 209.82 99.1751 210.227 99.0805L209.774 97.1325ZM208.839 97.2131C208.277 97.2131 207.72 97.0932 207.16 96.8423L206.342 98.6676C207.146 99.0275 207.981 99.2131 208.839 99.2131V97.2131ZM207.163 96.844C206.655 96.6139 206.23 96.265 205.881 95.7773L204.255 96.9415C204.8 97.7038 205.497 98.2853 206.339 98.666L207.163 96.844ZM205.885 95.7834C205.59 95.3643 205.407 94.7908 205.407 93.9943H203.407C203.407 95.1013 203.665 96.1044 204.25 96.9353L205.885 95.7834ZM205.407 93.9943V77.7159H203.407V93.9943H205.407ZM225.496 85.3011L225.768 86.2633L226.777 85.9777L226.444 84.9832L225.496 85.3011ZM223.237 85.9403L222.301 86.2934L222.626 87.1526L223.509 86.9025L223.237 85.9403ZM222.608 84.843L221.807 85.4405L221.813 85.4494L221.82 85.4581L222.608 84.843ZM221.501 83.9482L221.948 83.0537L221.501 83.9482ZM217.197 84.2891L217.763 85.1128L217.765 85.1116L217.197 84.2891ZM216.888 87.5064L216.264 88.2885L216.888 87.5064ZM219.018 88.4119L218.776 89.3821L218.78 89.3831L219.018 88.4119ZM221.447 89.0085L221.209 89.9797L221.211 89.9803L221.447 89.0085ZM224.718 90.6385L224.004 91.3386L224.007 91.3421L224.718 90.6385ZM224.984 95.9545L224.177 95.3645L224.173 95.3696L224.984 95.9545ZM215.258 97.2543L215.81 96.4205L215.258 97.2543ZM213.18 94.0795L212.938 93.1094L212.004 93.3427L212.201 94.2843L213.18 94.0795ZM215.567 93.483L216.535 93.2331L216.287 92.2721L215.324 92.5128L215.567 93.483ZM216.856 95.4645L216.284 96.285L216.288 96.288L216.856 95.4645ZM222.15 95.3793L222.736 96.1902L222.737 96.1891L222.15 95.3793ZM222.598 92.1406L221.897 92.8541L221.904 92.8605L222.598 92.1406ZM220.765 91.267L220.537 92.2407L220.539 92.241L220.765 91.267ZM218.038 90.6278L217.808 91.6009L217.81 91.6015L218.038 90.6278ZM214.736 88.9766L214.001 89.6555L214.008 89.6626L214.736 88.9766ZM214.469 83.7031L213.665 83.1083L213.662 83.1135L214.469 83.7031ZM216.611 82.0305L216.204 81.117L216.201 81.1182L216.611 82.0305ZM223.514 82.4886L222.904 83.2813L222.907 83.2835L223.514 82.4886ZM225.223 84.3389L222.965 84.9781L223.509 86.9025L225.768 86.2633L225.223 84.3389ZM224.173 85.5873C223.991 85.1061 223.729 84.6532 223.397 84.228L221.82 85.4581C222.042 85.7431 222.199 86.0217 222.301 86.2934L224.173 85.5873ZM223.41 84.2456C223.033 83.7393 222.534 83.3468 221.948 83.0537L221.053 84.8426C221.405 85.0183 221.644 85.2223 221.807 85.4405L223.41 84.2456ZM221.948 83.0537C221.296 82.728 220.529 82.5966 219.7 82.5966V84.5966C220.334 84.5966 220.767 84.6995 221.053 84.8426L221.948 83.0537ZM219.7 82.5966C218.543 82.5966 217.498 82.8648 216.628 83.4666L217.765 85.1116C218.23 84.7901 218.854 84.5966 219.7 84.5966V82.5966ZM216.63 83.4653C215.742 84.076 215.206 84.9431 215.206 86.0256H217.206C217.206 85.7018 217.33 85.4112 217.763 85.1128L216.63 83.4653ZM215.206 86.0256C215.206 86.9287 215.552 87.7207 216.264 88.2885L217.511 86.7243C217.314 86.5677 217.206 86.3725 217.206 86.0256H215.206ZM216.264 88.2885C216.884 88.782 217.756 89.1272 218.776 89.3821L219.261 87.4418C218.348 87.2137 217.801 86.9552 217.511 86.7243L216.264 88.2885ZM218.78 89.3831L221.209 89.9797L221.686 88.0374L219.257 87.4408L218.78 89.3831ZM221.211 89.9803C222.573 90.3108 223.465 90.7892 224.004 91.3386L225.432 89.9384C224.536 89.0247 223.248 88.4165 221.683 88.0367L221.211 89.9803ZM224.007 91.3421C224.516 91.8558 224.794 92.5254 224.794 93.4403H226.794C226.794 92.0683 226.354 90.87 225.428 89.9349L224.007 91.3421ZM224.794 93.4403C224.794 94.1714 224.588 94.8017 224.177 95.3645L225.792 96.5446C226.46 95.6302 226.794 94.5843 226.794 93.4403H224.794ZM224.173 95.3696C223.759 95.9441 223.163 96.4225 222.341 96.7879L223.153 98.6155C224.249 98.1286 225.144 97.4423 225.795 96.5395L224.173 95.3696ZM222.341 96.7879C221.534 97.1465 220.562 97.3409 219.402 97.3409V99.3409C220.784 99.3409 222.042 99.1092 223.153 98.6155L222.341 96.7879ZM219.402 97.3409C217.876 97.3409 216.7 97.0105 215.81 96.4205L214.705 98.088C216.002 98.9469 217.59 99.3409 219.402 99.3409V97.3409ZM215.81 96.4205C214.955 95.8544 214.401 95.0331 214.159 93.8748L212.201 94.2843C212.542 95.9101 213.373 97.2053 214.705 98.088L215.81 96.4205ZM213.423 95.0497L215.809 94.4531L215.324 92.5128L212.938 93.1094L213.423 95.0497ZM214.598 93.7328C214.874 94.801 215.421 95.6841 216.284 96.285L217.427 94.644C217.026 94.3642 216.714 93.9262 216.535 93.2331L214.598 93.7328ZM216.288 96.288C217.141 96.8754 218.192 97.125 219.359 97.125V95.125C218.467 95.125 217.849 94.9342 217.423 94.641L216.288 96.288ZM219.359 97.125C220.663 97.125 221.822 96.8491 222.736 96.1902L221.565 94.5684C221.1 94.9038 220.399 95.125 219.359 95.125V97.125ZM222.737 96.1891C223.628 95.5438 224.194 94.6644 224.194 93.5682H222.194C222.194 93.8782 222.065 94.2062 221.564 94.5695L222.737 96.1891ZM224.194 93.5682C224.194 92.7371 223.891 91.9987 223.292 91.4208L221.904 92.8605C222.1 93.0496 222.194 93.2629 222.194 93.5682H224.194ZM223.299 91.4272C222.719 90.8576 221.909 90.5065 220.992 90.2931L220.539 92.241C221.269 92.4111 221.682 92.6424 221.897 92.8541L223.299 91.4272ZM220.994 90.2934L218.266 89.6542L217.81 91.6015L220.537 92.2407L220.994 90.2934ZM218.269 89.6548C216.871 89.3235 215.981 88.8394 215.463 88.2906L214.008 89.6626C214.897 90.6052 216.208 91.2219 217.808 91.6009L218.269 89.6548ZM215.47 88.2977C214.963 87.749 214.692 87.0587 214.692 86.1534H212.692C212.692 87.5066 213.117 88.6984 214.001 89.6554L215.47 88.2977ZM214.692 86.1534C214.692 85.4308 214.89 84.8229 215.277 84.2927L213.662 83.1135C213.012 84.0038 212.692 85.0295 212.692 86.1534H214.692ZM215.273 84.298C215.685 83.7415 216.256 83.286 217.02 82.9429L216.201 81.1182C215.162 81.5848 214.305 82.2443 213.665 83.1083L215.273 84.298ZM217.017 82.9441C217.78 82.6045 218.668 82.4233 219.7 82.4233V80.4233C218.431 80.4233 217.259 80.6469 216.204 81.117L217.017 82.9441ZM219.7 82.4233C221.183 82.4233 222.213 82.7492 222.904 83.2813L224.124 81.696C222.969 80.8076 221.456 80.4233 219.7 80.4233V82.4233ZM222.907 83.2835C223.671 83.8663 224.217 84.6339 224.547 85.6191L226.444 84.9832C225.993 83.6388 225.218 82.5315 224.121 81.6938L222.907 83.2835Z" fill="black"/>
</g>
<defs>
<filter id="filter0_d_0_1" x="0.200195" y="0.900024" width="201.778" height="101.4" filterUnits="userSpaceOnUse" color-interpolation-filters="sRGB">
<feFlood flood-opacity="0" result="BackgroundImageFix"/>
<feColorMatrix in="SourceAlpha" type="matrix" values="0 0 0 0 0 0 0 0 0 0 0 0 0 0 0 0 0 0 127 0" result="hardAlpha"/>
<feOffset dy="4"/>
<feGaussianBlur stdDeviation="2"/>
<feComposite in2="hardAlpha" operator="out"/>
<feColorMatrix type="matrix" values="0 0 0 0 0 0 0 0 0 0 0 0 0 0 0 0 0 0 0.25 0"/>
<feBlend mode="normal" in2="BackgroundImageFix" result="effect1_dropShadow_0_1"/>
<feBlend mode="normal" in="SourceGraphic" in2="effect1_dropShadow_0_1" result="shape"/>
</filter>
<filter id="filter1_d_0_1" x="56.6421" y="76.1818" width="173.152" height="30.2018" filterUnits="userSpaceOnUse" color-interpolation-filters="sRGB">
<feFlood flood-opacity="0" result="BackgroundImageFix"/>
<feColorMatrix in="SourceAlpha" type="matrix" values="0 0 0 0 0 0 0 0 0 0 0 0 0 0 0 0 0 0 127 0" result="hardAlpha"/>
<feOffset dy="4"/>
<feGaussianBlur stdDeviation="2"/>
<feComposite in2="hardAlpha" operator="out"/>
<feColorMatrix type="matrix" values="0 0 0 0 0 0 0 0 0 0 0 0 0 0 0 0 0 0 0.25 0"/>
<feBlend mode="normal" in2="BackgroundImageFix" result="effect1_dropShadow_0_1"/>
<feBlend mode="normal" in="SourceGraphic" in2="effect1_dropShadow_0_1" result="shape"/>
</filter>
</defs>
</svg>
