<svg width="37" height="37" viewBox="0 0 37 37" fill="none" xmlns="http://www.w3.org/2000/svg">
<path d="M20.588 33.1327H20.4977C20.1662 33.1127 19.8506 32.9838 19.6 32.7659C19.3495 32.548 19.1779 32.2534 19.1121 31.9279L16.7928 20.5273C16.7338 20.2379 16.591 19.9722 16.3821 19.7633C16.1732 19.5545 15.9076 19.4116 15.6181 19.3526L4.21753 17.0333C3.89143 16.9686 3.59593 16.7977 3.3771 16.5474C3.15827 16.2971 3.02842 15.9814 3.00779 15.6496C2.98715 15.3178 3.07691 14.9885 3.26304 14.713C3.44918 14.4375 3.72124 14.2314 4.03681 14.1267L28.1332 6.09959C28.4037 5.98791 28.7008 5.95745 28.9883 6.01192C29.2759 6.0664 29.5413 6.20346 29.7521 6.40634C29.963 6.60923 30.1102 6.86916 30.1757 7.15435C30.2413 7.43955 30.2223 7.73766 30.1211 8.01224L22.094 32.1086C21.9892 32.4203 21.7853 32.6892 21.5134 32.8741C21.2414 33.059 20.9164 33.1499 20.588 33.1327Z" fill="#A9927D" />
</svg>
