<svg width="50" height="50" viewBox="0 0 50 50" fill="none" xmlns="http://www.w3.org/2000/svg">
<path d="M17.9378 45.8334C16.9211 45.8274 15.934 45.491 15.1253 44.875L10.8128 41.6667C9.81757 40.8908 9.15725 39.7632 8.9674 38.5157C8.77755 37.2681 9.07259 35.9952 9.79192 34.9584C10.1725 34.3964 10.4144 33.7521 10.4977 33.0785C10.581 32.4049 10.5033 31.7211 10.2711 31.0834L10.1461 30.75C9.98438 30.1727 9.68882 29.6417 9.2834 29.2001C8.87798 28.7585 8.37413 28.4187 7.81276 28.2084H7.47942C6.26249 27.7991 5.25611 26.9264 4.67882 25.7796C4.10152 24.6328 3.99993 23.3046 4.39609 22.0834L6.10442 16.6667C6.26168 16.0391 6.55121 15.4524 6.95362 14.9458C7.35603 14.4392 7.86204 14.0244 8.43776 13.7292C8.9739 13.4529 9.56053 13.2883 10.1621 13.2454C10.7637 13.2024 11.3678 13.2819 11.9378 13.4792C12.5583 13.688 13.2206 13.7422 13.8668 13.6369C14.5131 13.5316 15.1239 13.2701 15.6461 12.875L15.9169 12.6667C16.3896 12.2895 16.7717 11.8111 17.0349 11.2666C17.2981 10.7222 17.4358 10.1256 17.4378 9.52085V9.02085C17.4322 7.74613 17.9304 6.5208 18.8239 5.61165C19.7174 4.7025 20.934 4.18316 22.2086 4.16669H27.5211C28.1413 4.16836 28.755 4.29253 29.327 4.53207C29.899 4.77161 30.4181 5.1218 30.8544 5.56252C31.7717 6.49542 32.2812 7.75424 32.2711 9.06252V9.64585C32.2605 10.2203 32.3851 10.7893 32.6348 11.3067C32.8845 11.8242 33.2523 12.2758 33.7086 12.625L33.9378 12.7917C34.4053 13.1423 34.9508 13.3747 35.5275 13.469C36.1043 13.5633 36.6953 13.5168 37.2503 13.3334L37.9586 13.1042C38.5587 12.9053 39.1928 12.8292 39.8229 12.8806C40.4531 12.932 41.0664 13.1099 41.6264 13.4034C42.1863 13.697 42.6814 14.1004 43.0821 14.5894C43.4828 15.0785 43.7809 15.6433 43.9586 16.25L45.6044 21.5C45.9853 22.7133 45.8812 24.027 45.314 25.1652C44.7468 26.3034 43.7607 27.1776 42.5628 27.6042L42.1461 27.75C41.5333 27.9507 40.9791 28.2988 40.5323 28.7638C40.0855 29.2288 39.7597 29.7963 39.5836 30.4167C39.4178 30.9934 39.3784 31.5991 39.4683 32.1924C39.5582 32.7856 39.7752 33.3525 40.1044 33.8542L40.6461 34.6459C41.3644 35.6884 41.6567 36.9663 41.463 38.2175C41.2693 39.4687 40.6044 40.5984 39.6044 41.375L35.4169 44.6042C34.911 44.9911 34.3313 45.2703 33.7134 45.4247C33.0955 45.5791 32.4525 45.6054 31.8241 45.502C31.1957 45.3985 30.5951 45.1676 30.0593 44.8233C29.5235 44.479 29.0638 44.0286 28.7086 43.5L28.4586 43.1459C28.1174 42.6331 27.6518 42.2151 27.1053 41.9309C26.5589 41.6468 25.9493 41.5057 25.3336 41.5209C24.746 41.5361 24.1703 41.6892 23.6528 41.9678C23.1353 42.2465 22.6905 42.6429 22.3544 43.125L21.8753 43.8125C21.5199 44.3449 21.0593 44.7988 20.5219 45.1463C19.9844 45.4939 19.3815 45.7277 18.7503 45.8334C18.4801 45.8598 18.2079 45.8598 17.9378 45.8334ZM9.16692 24.2084C10.3434 24.6279 11.4049 25.3177 12.2661 26.2223C13.1273 27.1269 13.7641 28.2211 14.1253 29.4167V29.6667C14.5751 30.9097 14.7228 32.2418 14.5562 33.5532C14.3896 34.8645 13.9134 36.1174 13.1669 37.2084C13.0352 37.3539 12.9622 37.5433 12.9622 37.7396C12.9622 37.9359 13.0352 38.1253 13.1669 38.2709L17.6461 41.6667C17.7045 41.7126 17.7721 41.7455 17.8443 41.7631C17.9165 41.7807 17.9916 41.7827 18.0646 41.7689C18.1376 41.755 18.2069 41.7258 18.2676 41.683C18.3284 41.6402 18.3793 41.5849 18.4169 41.5209L18.8961 40.8334C19.6188 39.7891 20.5839 38.9357 21.7087 38.3462C22.8335 37.7568 24.0845 37.4488 25.3544 37.4488C26.6243 37.4488 27.8753 37.7568 29.0001 38.3462C30.125 38.9357 31.0901 39.7891 31.8128 40.8334L32.0628 41.2084C32.1523 41.3354 32.286 41.4246 32.4378 41.4584C32.5074 41.4686 32.5783 41.4647 32.6463 41.4468C32.7144 41.4289 32.7781 41.3974 32.8336 41.3542L37.1253 38.1042C37.2755 37.9849 37.3743 37.8127 37.4015 37.6228C37.4286 37.4329 37.3819 37.2399 37.2711 37.0834L36.7294 36.2917C36.0236 35.2625 35.558 34.088 35.3669 32.8548C35.1758 31.6216 35.2641 30.3612 35.6253 29.1667C35.9914 27.9112 36.6537 26.762 37.5564 25.8158C38.4591 24.8696 39.5759 24.154 40.8128 23.7292L41.2294 23.5834C41.4031 23.5138 41.5422 23.3784 41.6163 23.2066C41.6905 23.0349 41.6937 22.8408 41.6253 22.6667L40.0003 17.4792C39.9612 17.3884 39.9042 17.3065 39.8326 17.2385C39.7609 17.1704 39.6762 17.1177 39.5836 17.0834C39.5223 17.0522 39.4545 17.036 39.3857 17.036C39.3169 17.036 39.2491 17.0522 39.1878 17.0834L38.4794 17.3125C37.2812 17.708 36.0048 17.8065 34.7601 17.5997C33.5154 17.3928 32.3395 16.8868 31.3336 16.125L31.2503 15.9375C30.285 15.2065 29.5023 14.2617 28.9637 13.1773C28.4251 12.0929 28.1453 10.8983 28.1461 9.68752V9.04169C28.1499 8.84089 28.0751 8.64654 27.9378 8.50002C27.8179 8.3917 27.6618 8.33224 27.5003 8.33335H22.2086C22.1237 8.33865 22.0407 8.36066 21.9644 8.39811C21.888 8.43557 21.8198 8.48773 21.7637 8.55161C21.7076 8.61549 21.6646 8.68982 21.6373 8.77035C21.6099 8.85087 21.5988 8.936 21.6044 9.02085V9.54169C21.6046 10.7855 21.3191 12.0128 20.7701 13.1289C20.2211 14.245 19.4231 15.2201 18.4378 15.9792L18.1669 16.1875C17.1039 16.9969 15.858 17.5324 14.5392 17.7467C13.2204 17.9611 11.8691 17.8477 10.6044 17.4167C10.5098 17.3849 10.4074 17.3849 10.3128 17.4167C10.1952 17.4881 10.1066 17.5988 10.0628 17.7292L8.33359 23.1667C8.27331 23.3519 8.28744 23.5533 8.37298 23.7282C8.45851 23.9032 8.60876 24.038 8.79192 24.1042L9.16692 24.2084Z" fill="#231F20"/>
<path d="M25.0007 32.2917C23.5585 32.2917 22.1487 31.8641 20.9496 31.0628C19.7505 30.2616 18.8159 29.1228 18.264 27.7904C17.7121 26.4581 17.5677 24.992 17.8491 23.5775C18.1304 22.1631 18.8249 20.8638 19.8447 19.8441C20.8644 18.8243 22.1637 18.1298 23.5781 17.8485C24.9926 17.5671 26.4587 17.7115 27.7911 18.2634C29.1234 18.8153 30.2622 19.7499 31.0635 20.949C31.8647 22.1481 32.2923 23.5579 32.2923 25C32.2923 26.9339 31.5241 28.7886 30.1566 30.156C28.7892 31.5235 26.9345 32.2917 25.0007 32.2917ZM25.0007 21.875C24.3826 21.875 23.7784 22.0583 23.2645 22.4017C22.7506 22.7451 22.3501 23.2331 22.1135 23.8042C21.877 24.3752 21.8151 25.0035 21.9357 25.6097C22.0563 26.2159 22.3539 26.7727 22.7909 27.2098C23.228 27.6468 23.7848 27.9444 24.391 28.065C24.9972 28.1856 25.6255 28.1237 26.1965 27.8872C26.7676 27.6506 27.2556 27.2501 27.599 26.7362C27.9424 26.2223 28.1257 25.6181 28.1257 25C28.1257 24.1712 27.7964 23.3764 27.2104 22.7903C26.6243 22.2043 25.8295 21.875 25.0007 21.875Z" fill="#231F20"/>
</svg>
