<svg width="45" height="40" viewBox="0 0 45 40" fill="none" xmlns="http://www.w3.org/2000/svg">
<path d="M15.6409 33.3334H15.4939C12.5317 33.3099 9.6124 32.6893 6.94728 31.5167C6.45704 31.3079 6.0534 30.9623 5.79543 30.5304C5.53746 30.0985 5.43872 29.6031 5.51366 29.1167C5.59516 28.627 5.84521 28.1732 6.22809 27.82C6.61098 27.4668 7.10713 27.2323 7.64572 27.1501C9.29734 26.9502 10.8862 26.4454 12.3142 25.6667C9.83505 23.9091 7.92647 21.576 6.79072 18.9147C5.65497 16.2535 5.33436 13.3631 5.86287 10.5501C5.93453 10.1045 6.14586 9.68695 6.4717 9.34715C6.79754 9.00736 7.22419 8.75961 7.70085 8.63339C8.1646 8.50132 8.66092 8.49568 9.12817 8.61716C9.59543 8.73864 10.013 8.9819 10.3292 9.31672C11.4026 10.593 12.7514 11.6577 14.2935 12.4457C15.8356 13.2337 17.5386 13.7285 19.2985 13.9001C19.3826 11.9365 20.3132 10.0812 21.8901 8.73339C22.6775 8.04968 23.607 7.51491 24.6246 7.16024C25.6422 6.80556 26.7275 6.63808 27.8172 6.66756C28.9069 6.69703 29.9792 6.92287 30.9717 7.33191C31.9642 7.74094 32.857 8.325 33.598 9.05005C33.7911 9.20484 34.031 9.30347 34.2866 9.33319C34.5422 9.36291 34.8018 9.32233 35.0316 9.21672C35.4699 9.0293 35.9578 8.95875 36.4386 9.0133C36.9194 9.06784 37.3732 9.24524 37.747 9.5248C38.1208 9.80435 38.3992 10.1745 38.5498 10.5921C38.7003 11.0098 38.7168 11.4576 38.5973 11.8834C38.1734 13.4669 37.3702 14.9464 36.2447 16.2167C35.9966 20.958 33.6915 25.418 29.8319 28.6244C25.9723 31.8308 20.8712 33.5235 15.6409 33.3334ZM15.6409 30.0001H15.788C17.9249 30.0667 20.0552 29.748 22.0554 29.0625C24.0555 28.377 25.8856 27.3383 27.4397 26.0065C28.9938 24.6748 30.2409 23.0766 31.1088 21.3045C31.9766 19.5325 32.4478 17.6218 32.4952 15.6834C32.5256 15.1521 32.7672 14.6489 33.1753 14.2667C33.6236 13.7521 34.0059 13.193 34.3148 12.6001C33.6527 12.6012 32.9977 12.4756 32.3928 12.2315C31.7879 11.9874 31.2466 11.6302 30.8043 11.1834C30.379 10.801 29.8738 10.4993 29.3183 10.2962C28.7629 10.093 28.1683 9.99231 27.5694 10.0001C26.9646 9.98587 26.3625 10.0802 25.798 10.2775C25.2334 10.4749 24.7173 10.7714 24.2794 11.1501C23.6887 11.6584 23.2555 12.2985 23.0233 13.0063C22.791 13.7142 22.7679 14.4649 22.9561 15.1834L23.434 17.0834L21.2835 17.2167C19.08 17.3797 16.8637 17.1063 14.7881 16.4157C12.7126 15.725 10.8274 14.6335 9.26314 13.2167C9.19605 15.4107 9.8013 17.5786 11.0116 19.4793C12.2219 21.3801 13.9898 22.9392 16.1188 23.9834L17.8649 24.8834L16.707 26.3834C15.4547 27.8726 13.739 28.9872 11.7812 29.5834C13.0371 29.8688 14.3278 30.0088 15.6226 30.0001H15.6409Z" fill="#231F20"/>
</svg>
